<?xml version="1.0" encoding="UTF-8"?>
<!DOCTYPE svg PUBLIC "-//W3C//DTD SVG 1.1//EN" "http://www.w3.org/Graphics/SVG/1.1/DTD/svg11.dtd">
<!-- Creator: CorelDRAW X7 -->
<svg xmlns="http://www.w3.org/2000/svg" xml:space="preserve" width="150mm" height="150mm" version="1.1" style="shape-rendering:geometricPrecision; text-rendering:geometricPrecision; image-rendering:optimizeQuality; fill-rule:evenodd; clip-rule:evenodd"
viewBox="0 0 15000 15000"
 xmlns:xlink="http://www.w3.org/1999/xlink">
 <defs>
  <style type="text/css">
   <![CDATA[
    .fil4 {fill:black}
    .fil2 {fill:#E21010}
    .fil3 {fill:#FEFEFE}
    .fil0 {fill:#E21010;fill-rule:nonzero}
    .fil1 {fill:#FEFEFE;fill-rule:nonzero}
   ]]>
  </style>
 </defs>
 <g id="Слой_x0020_1">
  <metadata id="CorelCorpID_0Corel-Layer"/>
  <path id="_10" class="fil0" d="M6007 12365l0 301 -1130 0c12,-114 49,-223 110,-325 61,-103 182,-239 362,-409 146,-136 235,-229 267,-278 45,-67 67,-134 67,-200 0,-73 -19,-128 -58,-168 -38,-39 -92,-58 -159,-58 -68,0 -121,20 -161,62 -39,40 -62,108 -68,204l-322 -33c19,-179 79,-308 180,-387 101,-78 227,-117 379,-117 166,0 296,46 391,136 95,91 142,204 142,339 0,76 -13,149 -40,219 -27,69 -71,141 -130,217 -38,51 -109,123 -211,218 -102,94 -167,157 -194,188 -27,31 -49,62 -66,91l641 0z"/>
  <path id="_10_0" class="fil0" d="M6007 12365l0 301 -1130 0c12,-114 49,-223 110,-325 61,-103 182,-239 362,-409 146,-136 235,-229 267,-278 45,-67 67,-134 67,-200 0,-73 -19,-128 -58,-168 -38,-39 -92,-58 -159,-58 -68,0 -121,20 -161,62 -39,40 -62,108 -68,204l-322 -33c19,-179 79,-308 180,-387 101,-78 227,-117 379,-117 166,0 296,46 391,136 95,91 142,204 142,339 0,76 -13,149 -40,219 -27,69 -71,141 -130,217 -38,51 -109,123 -211,218 -102,94 -167,157 -194,188 -27,31 -49,62 -66,91l641 0z"/>
  <g id="_2573915831008">
   <path id="_10_1" class="fil0" d="M6007 12350l0 301 -1130 0c12,-114 49,-223 110,-325 61,-103 182,-239 362,-409 146,-136 235,-229 267,-278 45,-67 67,-134 67,-200 0,-73 -19,-128 -58,-168 -38,-39 -92,-58 -159,-58 -68,0 -121,20 -161,62 -39,40 -62,108 -68,204l-322 -33c19,-179 79,-308 180,-387 101,-78 227,-117 379,-117 166,0 296,46 391,136 95,91 142,204 142,339 0,76 -13,149 -40,219 -27,69 -71,141 -130,217 -38,51 -109,123 -211,218 -102,94 -167,157 -194,188 -27,31 -49,62 -66,91l641 0z"/>
   <path id="_11" class="fil0" d="M6770 10942c163,0 290,59 382,177 109,139 164,371 164,694 0,322 -55,554 -165,695 -91,116 -218,174 -381,174 -164,0 -296,-64 -396,-191 -100,-127 -150,-355 -150,-682 0,-320 55,-551 165,-692 91,-117 218,-175 381,-175zm0 271c-38,0 -73,12 -103,38 -30,25 -53,70 -70,135 -22,84 -33,227 -33,427 0,200 10,337 30,412 19,75 44,124 74,149 30,25 64,38 102,38 38,0 73,-13 103,-38 30,-25 53,-70 70,-136 22,-83 33,-225 33,-425 0,-200 -10,-338 -30,-412 -19,-75 -44,-125 -74,-150 -30,-26 -64,-38 -102,-38z"/>
  </g>
  <g id="_2573915830912">
   <path id="_10_2" class="fil0" d="M6007 12350l0 301 -1130 0c12,-114 49,-223 110,-325 61,-103 182,-239 362,-409 146,-136 235,-229 267,-278 45,-67 67,-134 67,-200 0,-73 -19,-128 -58,-168 -38,-39 -92,-58 -159,-58 -68,0 -121,20 -161,62 -39,40 -62,108 -68,204l-322 -33c19,-179 79,-308 180,-387 101,-78 227,-117 379,-117 166,0 296,46 391,136 95,91 142,204 142,339 0,76 -13,149 -40,219 -27,69 -71,141 -130,217 -38,51 -109,123 -211,218 -102,94 -167,157 -194,188 -27,31 -49,62 -66,91l641 0z"/>
   <path id="_10_3" class="fil0" d="M6007 12350l0 301 -1130 0c12,-114 49,-223 110,-325 61,-103 182,-239 362,-409 146,-136 235,-229 267,-278 45,-67 67,-134 67,-200 0,-73 -19,-128 -58,-168 -38,-39 -92,-58 -159,-58 -68,0 -121,20 -161,62 -39,40 -62,108 -68,204l-322 -33c19,-179 79,-308 180,-387 101,-78 227,-117 379,-117 166,0 296,46 391,136 95,91 142,204 142,339 0,76 -13,149 -40,219 -27,69 -71,141 -130,217 -38,51 -109,123 -211,218 -102,94 -167,157 -194,188 -27,31 -49,62 -66,91l641 0z"/>
   <g>
    <path id="_10_4" class="fil0" d="M6007 12350l0 301 -1130 0c12,-114 49,-223 110,-325 61,-103 182,-239 362,-409 146,-136 235,-229 267,-278 45,-67 67,-134 67,-200 0,-73 -19,-128 -58,-168 -38,-39 -92,-58 -159,-58 -68,0 -121,20 -161,62 -39,40 -62,108 -68,204l-322 -33c19,-179 79,-308 180,-387 101,-78 227,-117 379,-117 166,0 296,46 391,136 95,91 142,204 142,339 0,76 -13,149 -40,219 -27,69 -71,141 -130,217 -38,51 -109,123 -211,218 -102,94 -167,157 -194,188 -27,31 -49,62 -66,91l641 0z"/>
    <path id="_11_5" class="fil0" d="M6770 10942c163,0 290,59 382,177 109,139 164,371 164,694 0,322 -55,554 -165,695 -91,116 -218,174 -381,174 -164,0 -296,-64 -396,-191 -100,-127 -150,-355 -150,-682 0,-320 55,-551 165,-692 91,-117 218,-175 381,-175zm0 271c-38,0 -73,12 -103,38 -30,25 -53,70 -70,135 -22,84 -33,227 -33,427 0,200 10,337 30,412 19,75 44,124 74,149 30,25 64,38 102,38 38,0 73,-13 103,-38 30,-25 53,-70 70,-136 22,-83 33,-225 33,-425 0,-200 -10,-338 -30,-412 -19,-75 -44,-125 -74,-150 -30,-26 -64,-38 -102,-38z"/>
   </g>
  </g>
  <g id="_2573915828224">
   <path id="_10_6" class="fil0" d="M6007 12350l0 301 -1130 0c12,-114 49,-223 110,-325 61,-103 182,-239 362,-409 146,-136 235,-229 267,-278 45,-67 67,-134 67,-200 0,-73 -19,-128 -58,-168 -38,-39 -92,-58 -159,-58 -68,0 -121,20 -161,62 -39,40 -62,108 -68,204l-322 -33c19,-179 79,-308 180,-387 101,-78 227,-117 379,-117 166,0 296,46 391,136 95,91 142,204 142,339 0,76 -13,149 -40,219 -27,69 -71,141 -130,217 -38,51 -109,123 -211,218 -102,94 -167,157 -194,188 -27,31 -49,62 -66,91l641 0z"/>
   <path id="_11_7" class="fil0" d="M6770 10942c163,0 290,59 382,177 109,139 164,371 164,694 0,322 -55,554 -165,695 -91,116 -218,174 -381,174 -164,0 -296,-64 -396,-191 -100,-127 -150,-355 -150,-682 0,-320 55,-551 165,-692 91,-117 218,-175 381,-175zm0 271c-38,0 -73,12 -103,38 -30,25 -53,70 -70,135 -22,84 -33,227 -33,427 0,200 10,337 30,412 19,75 44,124 74,149 30,25 64,38 102,38 38,0 73,-13 103,-38 30,-25 53,-70 70,-136 22,-83 33,-225 33,-425 0,-200 -10,-338 -30,-412 -19,-75 -44,-125 -74,-150 -30,-26 -64,-38 -102,-38z"/>
  </g>
 </g>
 <g id="Слой_x0020_1_8">
  <metadata id="CorelCorpID_1Corel-Layer"/>
  <path class="fil1" d="M3250 7909l0 -799 126 0c73,0 127,5 161,14 48,13 86,37 114,71 29,34 43,75 43,122 0,30 -7,58 -19,83 -13,25 -34,48 -63,70 48,23 84,51 106,85 23,34 34,75 34,122 0,44 -12,85 -35,122 -23,37 -54,65 -90,83 -37,18 -88,27 -152,27l-225 0zm151 -654l0 169 34 0c38,0 66,-8 84,-24 19,-15 28,-36 28,-63 0,-25 -9,-45 -26,-60 -18,-15 -44,-22 -80,-22l-40 0zm0 305l0 205 39 0c64,0 107,-8 129,-24 22,-16 34,-39 34,-70 0,-34 -13,-61 -40,-81 -26,-20 -69,-30 -130,-30l-32 0z"/>
  <path class="fil1" d="M4276 7110l162 0c87,0 150,8 189,24 38,16 69,43 91,79 23,36 34,79 34,129 0,56 -15,102 -44,139 -29,37 -69,63 -119,78 -30,8 -84,12 -161,12l0 338 -152 0 0 -799zm152 313l48 0c39,0 65,-3 80,-8 15,-6 27,-15 36,-27 8,-13 13,-28 13,-46 0,-31 -12,-54 -36,-68 -18,-10 -51,-16 -98,-16l-43 0 0 165z"/>
  <path class="fil1" d="M5675 7090c113,0 210,41 292,123 81,82 122,182 122,299 0,117 -40,216 -121,296 -80,81 -177,121 -292,121 -120,0 -219,-41 -299,-124 -79,-83 -119,-181 -119,-296 0,-76 19,-146 56,-210 37,-64 87,-115 152,-153 65,-37 135,-56 209,-56zm-2 149c-74,0 -136,26 -186,77 -50,52 -75,117 -75,197 0,88 31,158 95,209 49,40 105,61 169,61 71,0 133,-27 183,-79 51,-52 76,-116 76,-193 0,-76 -25,-140 -76,-193 -51,-52 -113,-79 -186,-79z"/>
  <polygon class="fil1" points="6582,7110 6726,7110 7071,7636 7071,7110 7222,7110 7222,7909 7077,7909 6734,7385 6734,7909 6582,7909 "/>
  <path class="fil1" d="M8483 7241l-107 106c-68,-72 -147,-108 -237,-108 -79,0 -144,26 -197,78 -54,53 -80,116 -80,190 0,77 27,143 83,196 55,54 123,81 203,81 53,0 97,-11 133,-34 36,-22 65,-56 87,-103l-231 0 0 -143 402 0 1 34c0,70 -18,136 -54,199 -37,62 -84,110 -141,143 -58,33 -126,49 -203,49 -83,0 -157,-18 -222,-54 -65,-36 -117,-87 -155,-154 -38,-66 -57,-138 -57,-215 0,-106 35,-198 105,-276 83,-93 191,-140 324,-140 70,0 135,13 196,39 51,21 101,59 150,112z"/>
  <path class="fil0" d="M10052 7910l0 -800 126 0c73,0 127,5 161,14 48,13 86,36 114,71 29,34 43,75 43,122 0,30 -6,58 -19,83 -13,25 -34,48 -63,70 48,23 84,51 106,85 23,34 34,75 34,122 0,45 -12,85 -35,122 -23,37 -53,65 -90,83 -37,19 -88,28 -152,28l-225 0zm151 -655l0 169 34 0c38,0 66,-8 85,-24 18,-15 27,-37 27,-63 0,-25 -9,-45 -26,-60 -18,-15 -44,-22 -80,-22l-40 0zm0 305l0 205 39 0c64,0 107,-8 129,-24 23,-16 34,-39 34,-70 0,-34 -13,-61 -39,-81 -27,-20 -70,-30 -131,-30l-32 0z"/>
  <polygon class="fil0" points="10971,7110 11134,7110 11283,7397 11431,7110 11594,7110 11360,7563 11360,7910 11206,7910 11206,7563 "/>
  <polygon class="fil2" points="9094,7681 9306,7681 9306,7906 9094,7906 "/>
  <path class="fil2" d="M3292 2530l5130 0c-2676,325 -4078,1735 -5301,4075 -3,-13 -5,-26 -5,-40l0 -3859c0,-97 79,-176 176,-176zm5130 0l2 0 3165 0c97,0 176,79 176,176l0 3859c0,96 -79,176 -176,176l-8297 0c-82,0 -152,-58 -171,-136l0 0c1223,-2340 2625,-3750 5301,-4075z"/>
  <path class="fil3" d="M8422 2530l3167 0c97,0 176,79 176,176l0 3859c0,96 -79,176 -176,176l-8297 0c-82,0 -152,-58 -171,-136l0 0c1223,-2340 2625,-3750 5301,-4075z"/>
  <circle class="fil3" cx="5997" cy="2956" r="111"/>
  <path class="fil4" d="M11531 6749c-19,-56 -65,-136 -90,-190 -16,-34 -31,-65 -47,-98 -49,-104 -65,-78 -53,-229 3,-45 -10,-82 -20,-124 -17,-66 -17,-48 4,-111 23,-68 9,-59 8,-126 105,22 80,14 131,99 27,44 67,86 100,126 37,44 69,84 105,126 20,24 76,100 103,122l0 -857c-8,-24 -25,-45 -63,-97 -65,-89 -80,-116 -117,-223 -24,-71 -41,-95 -74,-152 -48,-85 -155,-287 -228,-338l-102 -70c-16,-11 -23,-8 -41,-14 -59,-20 -189,-75 -237,-102 -98,-53 -199,-109 -308,-145 -27,-9 -56,-17 -84,-29 -55,-23 -20,-102 -94,-132 -32,-13 -72,-3 -106,-7 -19,-45 4,-114 12,-162 12,-73 -2,-89 56,-131 35,-25 22,-2 48,-46 67,-113 119,-209 103,-351l-19 -166c-10,-36 -58,-79 -80,-106 -18,-22 -14,-43 -34,-61 -67,-63 -20,-22 -79,-62 -36,-24 -37,-30 -87,-54 -168,-80 -136,-89 -266,-47 -44,14 -95,31 -137,48 -22,9 -114,54 -131,53 -23,-1 -266,-127 -315,-150 -17,-8 -44,-30 -61,-21 -11,16 -2,8 -3,30 -1,35 -9,71 -6,106 7,64 30,113 62,164 29,44 77,69 113,108 -6,15 -23,32 -26,46 -5,28 11,30 18,55 -12,10 -20,21 -34,32 -11,9 -24,16 -38,26 -23,18 -48,42 -72,59 -28,18 -58,29 -57,71 0,37 42,45 60,69 -16,18 -40,19 -35,52 4,22 22,40 23,66l-47 30 2 87c-20,18 -30,9 -42,40 -8,20 -8,51 2,71 10,20 64,65 88,75 60,26 193,37 267,55 4,25 6,57 17,78 37,69 87,110 73,202 -29,-4 -66,-24 -90,-26 -22,-1 -20,10 -44,3 -53,-15 -88,-36 -147,-16 -40,14 -41,25 -53,64 -72,-16 -163,-14 -239,-6 -37,4 -76,7 -112,14 -38,9 -62,20 -96,31 -34,10 -35,-6 -58,0 -50,14 -10,38 -157,19 -58,-8 -267,-44 -323,-62 -32,-11 -77,-9 -114,-14 -82,-10 -122,-19 -193,-59 -29,-17 -51,-35 -78,-54 -65,-46 -348,-167 -435,-203 -25,-11 -56,-35 -77,-50 -29,-20 -47,-36 -71,-56 -45,-39 -98,-71 -149,-108 -53,-37 -100,-64 -140,-114 -27,-35 -33,-38 -36,-97 -1,-40 -1,-82 -2,-122 -1,-40 3,-78 7,-118 5,-56 -4,-60 -21,-105 -12,-31 -23,-59 -35,-91 -19,-48 -9,-52 -54,-73 -58,-28 -98,-75 -187,-65 -21,37 3,55 38,69 43,17 57,10 75,52 -69,0 -98,-24 -155,15 -23,-9 -30,-24 -63,-14 -75,24 4,122 24,162 -12,21 -37,38 -6,61 30,11 25,-14 48,4 -3,20 -25,17 -45,29 -13,7 -10,8 -26,15 -14,6 -18,1 -19,19 -5,47 87,14 110,14 30,74 14,142 71,213 28,34 12,26 27,69 4,13 10,22 18,31 24,28 22,2 43,52 13,29 46,50 64,76 38,53 69,126 114,171l181 199c108,112 182,166 319,248 40,25 76,48 117,73 23,14 36,22 62,33 112,49 49,68 201,85 162,18 464,192 726,219 48,5 42,-3 60,35 12,24 14,47 47,45 85,-4 126,-60 226,-1 103,61 41,26 106,85 74,68 79,71 105,179 36,152 79,303 112,455 15,68 183,890 199,923l1 0 1962 -3z"/>
  <path class="fil1" d="M2984 9813l0 -180 457 0 0 424c-45,44 -109,82 -193,116 -85,33 -170,49 -257,49 -110,0 -205,-23 -287,-70 -81,-46 -143,-113 -184,-200 -41,-87 -62,-182 -62,-284 0,-111 23,-209 69,-295 46,-86 113,-153 201,-199 68,-35 152,-53 252,-53 131,0 233,28 306,84 73,55 120,132 141,230l-211 40c-15,-53 -43,-94 -83,-124 -41,-30 -92,-46 -153,-46 -93,0 -166,30 -221,90 -55,59 -82,148 -82,265 0,126 28,221 83,284 56,63 128,94 218,94 44,0 89,-9 133,-26 45,-18 83,-39 115,-64l0 -135 -242 0z"/>
  <path id="_1" class="fil1" d="M3637 10203l0 -1062 447 0c113,0 194,9 245,28 51,19 92,53 123,102 30,49 46,105 46,167 0,80 -23,146 -70,198 -46,52 -115,85 -207,98 46,27 84,57 113,89 30,33 70,90 121,173l128 207 -254 0 -152 -232c-55,-82 -92,-134 -113,-156 -20,-21 -41,-36 -63,-44 -23,-8 -59,-12 -108,-12l-43 0 0 444 -213 0zm213 -613l157 0c102,0 165,-4 191,-13 25,-8 45,-24 59,-45 15,-21 22,-48 22,-80 0,-36 -10,-64 -29,-86 -18,-22 -45,-36 -79,-42 -18,-2 -69,-4 -155,-4l-166 0 0 270z"/>
  <path id="_2" class="fil1" d="M5645 10203l-230 0 -90 -242 -422 0 -87 242 -226 0 409 -1062 224 0 422 1062zm-389 -421l-147 -393 -142 393 289 0z"/>
  <polygon id="_3" class="fil1" points="5758,10203 5758,9141 5964,9141 6397,9853 6397,9141 6593,9141 6593,10203 6381,10203 5955,9505 5955,10203 "/>
  <path id="_4" class="fil1" d="M6818 9141l388 0c87,0 153,6 199,20 62,18 114,51 158,98 44,47 78,104 101,172 22,68 34,152 34,251 0,88 -11,163 -32,226 -27,77 -64,140 -113,188 -36,36 -86,64 -149,85 -46,15 -109,22 -187,22l-399 0 0 -1062zm213 179l0 703 158 0c59,0 102,-3 128,-10 34,-8 63,-23 85,-44 23,-21 41,-55 56,-102 14,-48 21,-113 21,-195 0,-82 -7,-145 -21,-189 -15,-44 -35,-78 -60,-103 -26,-24 -59,-41 -98,-50 -30,-6 -88,-10 -174,-10l-95 0z"/>
  <polygon id="_5" class="fil1" points="8287,10203 8287,9141 9009,9141 9009,9320 8500,9320 8500,9572 8940,9572 8940,9752 8500,9752 8500,10203 "/>
  <polygon id="_6" class="fil1" points="9176,10203 9176,9141 9389,9141 9389,10203 "/>
  <polygon id="_7" class="fil1" points="9592,10203 9592,9141 9798,9141 10230,9853 10230,9141 10427,9141 10427,10203 10214,10203 9788,9505 9788,10203 "/>
  <path id="_8" class="fil1" d="M11599 10203l-229 0 -91 -242 -422 0 -87 242 -225 0 408 -1062 225 0 421 1062zm-389 -421l-146 -393 -142 393 288 0z"/>
  <polygon id="_9" class="fil1" points="11718,10203 11718,9150 11931,9150 11931,10023 12458,10023 12458,10203 "/>
  <path id="_10_9" class="fil0" d="M8677 12365l0 301 -1130 0c12,-114 49,-223 110,-325 61,-103 182,-239 362,-409 146,-136 235,-229 267,-278 45,-67 67,-134 67,-200 0,-73 -19,-128 -58,-168 -38,-39 -92,-58 -159,-58 -68,0 -121,20 -161,62 -39,40 -62,108 -68,204l-322 -33c19,-179 79,-308 180,-387 101,-78 227,-117 379,-117 166,0 296,46 391,136 95,91 142,204 142,339 0,76 -13,149 -40,219 -27,69 -71,141 -130,217 -38,51 -109,123 -211,218 -102,94 -167,157 -194,188 -27,31 -49,62 -66,91l641 0z"/>
  <path id="_11_10" class="fil0" d="M9511 10942c163,0 290,59 382,177 109,139 164,371 164,694 0,322 -55,554 -165,695 -91,116 -218,174 -381,174 -164,0 -296,-64 -396,-191 -100,-127 -150,-355 -150,-682 0,-320 55,-551 165,-692 91,-117 218,-175 381,-175zm0 271c-38,0 -73,12 -103,38 -30,25 -53,70 -70,135 -22,84 -33,227 -33,427 0,200 10,337 30,412 19,75 44,124 74,149 30,25 64,38 102,38 38,0 73,-13 103,-38 30,-25 53,-70 70,-136 22,-83 33,-225 33,-425 0,-200 -10,-338 -30,-412 -19,-75 -44,-125 -74,-150 -30,-26 -64,-38 -102,-38z"/>
 </g>
</svg>
