<?xml version="1.0" encoding="UTF-8"?>
<!DOCTYPE svg PUBLIC "-//W3C//DTD SVG 1.1//EN" "http://www.w3.org/Graphics/SVG/1.1/DTD/svg11.dtd">
<!-- Creator: CorelDRAW X7 -->
<svg xmlns="http://www.w3.org/2000/svg" xml:space="preserve" width="105mm" height="65mm" version="1.1" style="shape-rendering:geometricPrecision; text-rendering:geometricPrecision; image-rendering:optimizeQuality; fill-rule:evenodd; clip-rule:evenodd"
viewBox="0 0 10500 6500"
 xmlns:xlink="http://www.w3.org/1999/xlink">
 <defs>
  <style type="text/css">
   <![CDATA[
    .fil3 {fill:#FEFEFE}
    .fil4 {fill:black}
    .fil2 {fill:#E21010}
    .fil0 {fill:#FEFEFE;fill-rule:nonzero}
    .fil1 {fill:#E21010;fill-rule:nonzero}
   ]]>
  </style>
 </defs>
 <g id="Слой_x0020_1">
  <metadata id="CorelCorpID_0Corel-Layer"/>
  <g id="_727586288">
   <path class="fil0" d="M308 6305l0 -924 146 0c85,0 147,5 186,16 55,15 99,42 132,82 33,40 50,87 50,141 0,35 -8,67 -23,96 -15,28 -39,55 -72,80 56,27 97,60 123,99 26,40 38,86 38,141 0,51 -13,99 -40,141 -27,43 -62,75 -104,96 -42,21 -101,32 -176,32l-260 0zm175 -757l0 196 40 0c43,0 76,-9 97,-27 21,-18 32,-43 32,-74 0,-29 -10,-52 -30,-69 -21,-17 -51,-26 -92,-26l-47 0zm0 353l0 236 45 0c74,0 124,-9 150,-27 25,-19 38,-46 38,-81 0,-39 -15,-71 -45,-94 -30,-23 -81,-34 -151,-34l-37 0z"/>
   <path class="fil0" d="M1494 5381l187 0c101,0 174,9 218,28 45,19 80,49 106,90 26,42 39,92 39,150 0,65 -17,118 -51,161 -34,43 -80,72 -138,89 -34,10 -96,15 -186,15l0 391 -175 0 0 -924zm175 361l57 0c44,0 75,-3 92,-9 17,-6 31,-17 41,-31 10,-15 15,-32 15,-53 0,-36 -14,-62 -42,-78 -20,-13 -58,-19 -113,-19l-50 0 0 190z"/>
   <path class="fil0" d="M3111 5358c130,0 242,47 336,142 94,94 141,210 141,346 0,134 -46,248 -139,342 -92,93 -205,140 -337,140 -139,0 -254,-48 -346,-144 -91,-96 -137,-210 -137,-342 0,-88 21,-169 64,-243 43,-74 101,-133 176,-176 75,-43 155,-65 242,-65zm-3 172c-85,0 -157,30 -215,89 -58,60 -87,135 -87,227 0,102 37,183 110,242 57,47 122,70 195,70 83,0 154,-30 212,-91 59,-60 88,-134 88,-222 0,-88 -30,-163 -88,-223 -59,-61 -131,-92 -215,-92z"/>
   <polygon class="fil0" points="4158,5381 4325,5381 4723,5989 4723,5381 4898,5381 4898,6305 4730,6305 4333,5699 4333,6305 4158,6305 "/>
   <path class="fil0" d="M6354 5532l-123 122c-78,-82 -170,-124 -274,-124 -91,0 -167,30 -228,91 -61,60 -92,133 -92,219 0,89 32,164 95,226 64,62 142,93 236,93 60,0 112,-13 153,-38 42,-26 75,-66 101,-120l-267 0 0 -165 464 0 1 39c0,81 -21,158 -63,230 -42,72 -96,128 -162,166 -67,38 -145,57 -235,57 -96,0 -181,-21 -256,-63 -76,-41 -135,-101 -179,-178 -44,-77 -66,-160 -66,-249 0,-122 41,-228 122,-319 96,-107 221,-161 374,-161 81,0 156,15 226,44 59,26 117,69 173,130z"/>
   <path class="fil1" d="M8167 6305l0 -924 146 0c84,0 146,5 185,16 56,15 100,42 133,82 33,40 49,87 49,141 0,35 -7,67 -22,96 -15,28 -39,55 -73,80 56,27 97,60 123,99 26,40 39,87 39,141 0,52 -13,99 -40,141 -27,43 -62,75 -104,96 -43,21 -101,32 -176,32l-260 0zm175 -757l0 196 39 0c44,0 76,-9 98,-28 21,-18 31,-42 31,-73 0,-29 -10,-52 -30,-69 -20,-17 -51,-26 -92,-26l-46 0zm0 353l0 236 44 0c74,0 124,-9 150,-27 26,-19 39,-45 39,-81 0,-39 -15,-71 -46,-94 -30,-23 -80,-34 -150,-34l-37 0z"/>
   <polygon class="fil1" points="9229,5381 9417,5381 9589,5713 9761,5381 9949,5381 9678,5905 9678,6305 9500,6305 9500,5905 "/>
   <polygon class="fil2" points="7060,6041 7306,6041 7306,6301 7060,6301 "/>
   <path class="fil2" d="M358 90l5927 0c-3092,375 -4712,2004 -6125,4708 -4,-15 -6,-31 -6,-47l0 -4458c0,-112 92,-203 204,-203zm5927 0l1 0 3657 0c111,0 203,91 203,203l0 4458c0,112 -92,203 -203,203l-9585 0c-96,0 -177,-67 -198,-156l0 0c1413,-2704 3033,-4333 6125,-4708z"/>
   <path class="fil3" d="M6285 90l3658 0c111,0 203,91 203,203l0 4458c0,112 -92,203 -203,203l-9585 0c-96,0 -177,-67 -198,-156l0 0c1413,-2704 3033,-4333 6125,-4708z"/>
   <circle class="fil3" cx="3482" cy="582" r="129"/>
   <path class="fil4" d="M9876 4964c-22,-65 -75,-157 -104,-220 -19,-39 -36,-75 -54,-113 -57,-121 -75,-89 -62,-265 4,-51 -12,-94 -23,-142 -19,-77 -19,-56 5,-128 27,-80 10,-70 9,-147 122,25 93,16 152,115 30,51 77,99 116,145 42,51 79,97 120,146 23,28 88,116 119,141l0 -990c-8,-28 -29,-53 -72,-112 -76,-103 -93,-134 -135,-258 -28,-82 -48,-110 -86,-176 -56,-97 -180,-331 -264,-390l-117 -81c-19,-12 -27,-9 -47,-16 -69,-24 -219,-87 -275,-117 -113,-62 -230,-127 -355,-168 -32,-10 -65,-20 -97,-34 -64,-27 -23,-118 -109,-153 -38,-15 -83,-3 -123,-8 -21,-51 5,-132 14,-187 14,-84 -2,-103 65,-151 41,-29 26,-3 56,-53 77,-131 137,-241 119,-405l-22 -193c-13,-41 -67,-91 -93,-122 -21,-25 -16,-49 -39,-71 -78,-72 -23,-25 -92,-71 -41,-28 -42,-35 -99,-62 -195,-92 -158,-103 -309,-55 -50,16 -109,36 -158,56 -25,11 -132,63 -151,62 -26,-2 -308,-147 -364,-175 -19,-9 -50,-34 -71,-23 -12,17 -2,8 -3,34 0,40 -10,82 -6,123 7,73 34,130 71,189 33,51 89,80 131,125 -7,17 -27,37 -30,53 -7,32 13,34 21,63 -15,12 -24,25 -40,38 -13,10 -28,18 -43,30 -28,21 -56,48 -84,67 -32,22 -67,34 -66,83 0,43 48,52 69,79 -19,22 -46,23 -40,61 5,25 25,46 26,75l-54 35 2 101c-23,21 -34,10 -48,47 -9,22 -9,58 2,81 12,23 74,75 102,87 69,29 223,42 308,64 5,28 7,65 20,89 42,80 101,128 85,233 -34,-3 -77,-27 -104,-29 -25,-1 -23,12 -52,4 -60,-18 -101,-42 -170,-19 -45,16 -46,28 -60,74 -84,-19 -188,-17 -277,-7 -42,4 -87,8 -129,17 -44,9 -71,22 -111,34 -39,12 -40,-6 -67,1 -58,16 -12,44 -181,21 -67,-9 -308,-50 -374,-71 -37,-12 -88,-11 -131,-16 -95,-12 -141,-22 -223,-69 -34,-18 -59,-40 -90,-62 -76,-53 -402,-192 -503,-234 -29,-13 -65,-41 -89,-58 -33,-23 -54,-41 -81,-65 -53,-45 -113,-82 -173,-125 -61,-42 -116,-73 -162,-131 -31,-40 -37,-44 -41,-112 -2,-46 -2,-94 -3,-141 -1,-46 4,-90 9,-136 6,-65 -5,-69 -25,-121 -13,-36 -27,-69 -41,-106 -21,-56 -9,-60 -61,-85 -67,-31 -113,-86 -217,-74 -24,42 4,63 44,79 50,20 66,12 87,60 -80,0 -114,-27 -179,18 -27,-11 -35,-28 -73,-17 -87,28 4,142 28,188 -14,24 -43,44 -7,70 34,13 29,-16 56,5 -4,22 -30,20 -53,33 -14,8 -11,10 -30,17 -16,8 -20,2 -22,22 -6,55 101,17 127,17 35,86 16,164 83,246 32,39 13,30 30,79 6,16 12,27 21,37 29,32 26,2 50,59 15,34 53,58 74,88 44,62 80,146 132,198l209 230c125,129 210,191 368,286 47,29 88,56 136,84 26,17 41,26 71,39 130,57 57,78 232,98 187,21 537,222 840,253 55,5 48,-4 69,40 13,28 16,55 54,53 98,-5 145,-70 261,-2 119,71 48,30 122,98 86,79 92,83 122,208 42,175 91,350 129,524 17,79 212,1029 230,1067l1 1 2267 -4z"/>
  </g>
 </g>
</svg>
