<?xml version="1.0" encoding="UTF-8"?>
<!DOCTYPE svg PUBLIC "-//W3C//DTD SVG 1.1//EN" "http://www.w3.org/Graphics/SVG/1.1/DTD/svg11.dtd">
<!-- Creator: CorelDRAW X7 -->
<svg xmlns="http://www.w3.org/2000/svg" xml:space="preserve" width="138mm" height="36mm" version="1.1" style="shape-rendering:geometricPrecision; text-rendering:geometricPrecision; image-rendering:optimizeQuality; fill-rule:evenodd; clip-rule:evenodd"
viewBox="0 0 13800 3600"
 xmlns:xlink="http://www.w3.org/1999/xlink">
 <defs>
  <style type="text/css">
   <![CDATA[
    .str0 {stroke:#E6E6E6;stroke-width:75}
    .str2 {stroke:black;stroke-width:50}
    .str3 {stroke:#911A16;stroke-width:40}
    .str1 {stroke:#E10F0E;stroke-width:20}
    .fil1 {fill:none}
    .fil0 {fill:black}
    .fil3 {fill:#E10F0E}
    .fil2 {fill:white}
   ]]>
  </style>
 </defs>
 <g id="Слой_x0020_1">
  <metadata id="CorelCorpID_0Corel-Layer"/>
  <g id="_796691584">
   <polygon class="fil0" points="7063,106 10059,106 10059,3328 9888,3511 7248,3494 7076,3302 "/>
   <path class="fil1 str0" d="M7095 106c0,1056 0,2113 0,3169 34,107 106,184 202,218l2590 0"/>
   <path class="fil1 str0" d="M10059 106c0,1056 0,2113 0,3169 -34,107 -88,185 -184,218"/>
   <g>
    <rect class="fil2" transform="matrix(2.45638E-015 -0.0928262 0.0918236 2.4314E-015 7917.81 2628.08)" width="26614" height="13280" rx="869" ry="869"/>
    <path class="fil3 str1" d="M7932 2603c-1,-499 -5,-1015 -6,-1514 1,10 14,-1 15,8 51,661 457,1175 1158,1506l-1167 0z"/>
    <ellipse class="fil2" transform="matrix(2.45638E-015 -0.0924898 0.0943374 2.50634E-015 8062.96 1791.99)" rx="337" ry="331"/>
    <rect class="fil1 str2" transform="matrix(2.45638E-015 -0.0928262 0.0918236 2.4314E-015 7917.81 2628.08)" width="26614" height="13280" rx="869" ry="869"/>
    <path class="fil0" d="M8869 313l0 -8 3 0 0 -10 2 0 0 -2 5 0 0 -3 3 0 0 -2 5 0 0 -3 5 0 0 -3 5 0 0 -2 3 0 0 -3 2 0 0 -2 5 0 0 -3 3 0 0 -2 3 0 0 -3 2 0 0 -2 3 0 0 -3 5 0 0 -2 2 0 0 -3 3 0 0 -2 2 0 0 -3 3 0 0 -3 5 0 0 -2 2 0 0 -3 3 0 0 -2 3 0 0 -3 5 0 0 -2 2 0 0 -3 3 0 0 -2 2 0 0 -3 5 0 0 -2 3 0 0 -3 2 0 0 -3 3 0 0 -2 2 0 0 -3 6 0 0 -2 2 0 0 -3 3 0 0 -2 2 0 0 -3 5 0 0 -2 3 0 0 -3 2 0 0 -2 3 0 0 -3 2 0 0 -2 11 0c-3,-20 2,-40 15,-57l3 -4 -248 0c1,25 -11,48 -31,63l7 0 0 3 -3 0 0 2 -5 0 0 3 -3 0 0 2 -5 0 0 3 -2 0 0 2 -5 0 0 3 -3 0 0 2 -2 0 0 3 -5 0 0 2 -3 0 0 3 -3 0 0 3 -5 0 0 2 -2 0 0 3 -5 0 0 2 -3 0 0 3 -7 0 0 2 -5 0 0 3 -11 0 0 2 -5 0 0 3 -7 0 0 2 -8 0 0 3 -8 0 0 3 -2 0 0 2 -5 0 0 3 -5 0 0 2 -3 0 0 3 -5 0 0 2 -5 0 0 3 -5 0 0 2 -3 0 0 3 -5 0 0 2 -5 0 0 3 -5 0 0 2 -2 0 0 3 -5 0 0 3 -5 0 0 2 -6 0 0 3 -2 0 0 2 -5 0 0 3 -5 0 0 2 -3 0 0 3 -2 0 0 2 -5 0 0 3 -3 0 0 2 -5 0 0 3 -3 0 0 2 -2 0 0 3 -5 0 0 3 -3 0 0 2 -2 0 0 3 -3 0 0 2 -2 0 0 5 -3 0 0 3 -2 0 0 5 -3 0 0 2 -3 0 0 3 -2 0 0 5 -3 0 0 3 -2 0 0 5 -3 0 0 2 -2 0 0 10 -3 0 0 8 -2 0 0 5 -3 0 0 5 -2 0 0 8 -3 0 0 5 -2 0 0 10 -3 0 0 5 -3 0 0 5 -2 0 0 5 -3 0 0 5 -2 0 0 5 -3 0 0 5 -2 0 0 3 -3 0 0 5 -2 0 0 5 -3 0 0 5 -2 0 0 5 -3 0 0 5 -2 0 0 5 -3 0 0 6 -3 0 0 7 -2 0 0 5 -3 0 0 5 -2 0 0 5 -3 0 0 5 -2 0 0 8 -3 0 0 8 -2 0 0 5 -3 0 0 10 -2 0 0 5 -3 0 0 5 -3 0 0 3 -5 0 0 2 -7 0 0 3 -5 0 0 2 -8 0 0 3 -5 0 0 7 -3 0 0 3 -2 0 0 30 -18 0 0 -2 -18 0 0 -3 -15 0 0 -2 -13 0 0 -3 -7 0 0 -2 -3 0 0 -3 -2 0 0 -2 -3 0 0 -3 -2 0 0 -5 -3 0 0 -2 -2 0 0 -3 -3 0 0 -3 -5 0 0 -2 -5 0 0 -3 -3 0 0 -2 -5 0 0 -3 -5 0 0 -2 -2 0 0 -3 -5 0 0 -2 -6 0 0 -3 -7 0 0 -2 -5 0 0 -3 -10 0 0 -3 -11 0 0 -2 -35 0 0 2 -20 0 0 3 -26 0 0 3 -2 0 0 2 -5 0 0 3 -3 0 0 2 -5 0 0 3 -3 0 0 2 -2 0 0 3 -3 0 0 2 -2 0 0 3 -3 0 0 2 -5 0 0 3 -7 0 0 3 -3 0 0 2 -3 0 0 3 -2 0 0 2 -3 0 0 3 -2 0 0 2 -3 0 0 3 -2 0 0 5 -3 0 0 5 -2 0 0 2 -3 0 0 6 -2 0 0 2 -3 0 0 5 -2 0 0 5 -3 0 0 5 -3 0 0 5 -2 0 0 5 -3 0 0 6 -2 0 0 5 -3 0 0 5 -2 0 0 5 -3 0 0 5 -2 0 0 18 2 0 0 7 3 0 0 10 2 0 0 8 3 0 0 3 2 0 0 10 3 0 0 5 2 0 0 10 3 0 0 5 3 0 0 5 2 0 0 5 3 0 0 8 2 0 0 5 3 0 0 5 2 0 0 10 -2 0 0 5 -3 0 0 5 -2 0 0 5 -3 0 0 5 -2 0 0 6 -3 0 0 5 -3 0 0 5 -2 0 0 5 -3 0 0 5 -2 0 0 5 -3 0 0 5 -2 0 0 5 -3 0 0 5 -2 0 0 5 -3 0 0 8 -2 0 0 2 -3 0 0 8 -2 0 0 5 -3 0 0 8 53 0 0 -3 5 0 0 -2 8 0 0 -3 5 0 0 -2 5 0 0 -3 3 0 0 -3 5 0 0 -2 2 0 0 -3 5 0 0 -5 3 0 0 -2 3 0 0 -3 2 0 0 -2 3 0 0 -3 2 0 0 -2 3 0 0 -3 2 0 0 -5 3 0 0 -3 5 0 0 3 2 0 0 3 5 0 0 2 11 0 0 -2 2 0 0 -3 8 0 0 5 2 0 0 3 3 0 0 2 2 0 0 3 3 0 0 7 2 0 0 3 3 0 0 2 3 0 0 3 2 0 0 2 3 0 0 3 2 0 0 3 3 0 0 5 2 0 0 2 3 0 0 5 2 0 0 3 3 0 0 2 2 0 0 3 13 0 0 -3 5 0 0 -2 3 0 0 -5 2 0 0 -3 3 0 0 -2 5 0 0 2 2 0 0 5 16 0 0 -2 7 0 0 -3 5 0 0 3 3 0 0 2 2 0 0 5 3 0 0 3 28 0 0 8 2 0 0 2 6 0 0 3 12 0 0 -3 8 0 0 -2 5 0 0 -3 2 0 0 -3 3 0 0 -5 3 0 0 -2 2 0 0 -3 3 0 0 -5 2 0 0 -5 3 0 0 -15 2 0 0 -8 3 0 0 -12 2 0 0 -21 3 0 0 -12 2 0 0 -3 13 0 0 -3 8 0 0 -2 5 0 0 -3 5 0 0 -2 2 0 0 -3 5 0 0 -2 3 0 0 -3 5 0 0 -2 3 0 0 -3 10 0 0 -2 18 0 0 7 -3 0 0 13 -2 0 0 20 -3 0 0 10 -3 0 0 31 3 0 0 5 3 0 0 2 2 0 0 3 10 0 0 10 -2 0 0 61 2 0 0 26 3 0 0 7 2 0 0 8 3 0 0 7 2 0 0 8 3 0 0 10 -3 0 0 5 3 0 0 5 2 0 0 5 3 0 0 36 -3 0 0 10 -2 0 0 15 -3 0 0 13 -2 0 0 15 -3 0 0 13 -2 0 0 15 -3 0 0 10 -2 0 0 21 -3 0 0 15 -2 0 0 13 -3 0 0 15 -2 0 0 5 -3 0 0 5 -3 0 0 5 -2 0 0 5 -3 0 0 3 -2 0 0 5 -3 0 0 2 -2 0 0 3 -3 0 0 5 -2 0 0 3 -3 0 0 2 -2 0 0 5 -3 0 0 5 -3 0 0 5 -2 0 0 5 -3 0 0 8 -2 0 0 5 -3 0 0 5 -2 0 0 5 -3 0 0 8 -2 0 0 5 -3 0 0 5 -2 0 0 5 -3 0 0 5 -2 0 0 8 -3 0 0 5 -3 0 0 5 -2 0 0 8 -3 0 0 5 -2 0 0 5 -3 0 0 5 -2 0 0 7 -3 0 0 3 -2 0 0 5 -3 0 0 3 -2 0 0 5 -3 0 0 2 -2 0 0 5 -3 0 0 3 -3 0 0 2 -2 0 0 5 -3 0 0 3 -2 0 0 3 -3 0 0 2 -2 0 0 3 -3 0 0 2 -2 0 0 5 -3 0 0 3 -2 0 0 5 -3 0 0 2 -2 0 0 5 -3 0 0 3 -3 0 0 5 -2 0 0 3 -3 0 0 5 -2 0 0 2 -3 0 0 3 -2 0 0 5 -3 0 0 2 -2 0 0 5 -3 0 0 3 -2 0 0 5 -3 0 0 3 -2 0 0 2 -3 0 0 3 -3 0 0 2 -5 0 0 3 -2 0 0 2 -3 0 0 3 -2 0 0 2 -8 0 0 3 -76 0 0 -3 -15 0 0 3 -10 0 0 2 -6 0 0 3 -7 0 0 3 -8 0 0 2 -5 0 0 3 -5 0 0 2 -8 0 0 3 -5 0 0 2 -5 0 0 3 -2 0 0 7 -3 0 0 3 -2 0 0 5 -3 0 0 5 -2 0 0 3 -3 0 0 5 -3 0 0 7 -2 0 0 26 10 0 0 -3 3 0 0 -2 2 0 0 -5 3 0 0 -5 2 0 0 -11 3 0 0 -5 5 0 0 -2 2 0 0 -3 3 0 0 10 -3 0 0 26 3 0 0 5 3 0 0 7 -3 0 0 18 3 0 0 3 2 0 0 2 15 0 0 -2 3 0 0 -3 5 0 0 -2 5 0 0 -3 3 0 0 -2 5 0 0 -3 7 0 0 3 3 0 0 2 7 0 0 -2 3 0 0 -16 5 0 0 5 3 0 0 6 2 0 0 5 3 0 0 2 2 0 0 8 10 0 0 -21 -2 0 0 -10 5 0 0 -2 7 0 0 -3 13 0 0 -2 13 0 0 -3 7 0 0 -2 6 0 0 -3 5 0 0 -2 2 0 0 -3 3 0 0 -3 2 0 0 -2 13 0 0 -3 8 0 0 -2 2 0 0 -3 3 0 0 -2 2 0 0 -5 3 0 0 -3 7 0 0 -2 3 0 0 -3 5 0 0 -2 3 0 0 -3 2 0 0 -3 3 0 0 -2 2 0 0 -3 3 0 0 -2 5 0 0 -3 2 0 0 -2 5 0 0 -3 5 0 0 -2 6 0 0 -3 2 0 0 -2 5 0 0 -3 3 0 0 -3 5 0 0 -2 2 0 0 -3 3 0 0 -2 2 0 0 -3 3 0 0 -2 5 0 0 -3 3 0 0 -2 2 0 0 -3 3 0 0 -2 2 0 0 -3 3 0 0 -2 2 0 0 -3 5 0 0 -3 3 0 0 -2 2 0 0 -3 3 0 0 -2 2 0 0 -3 3 0 0 -2 3 0 0 -3 2 0 0 -2 3 0 0 -3 5 0 0 -5 2 0 0 -2 3 0 0 -3 5 0 0 -3 2 0 0 -2 3 0 0 -3 3 0 0 -2 2 0 0 -5 3 0 0 -3 2 0 0 -2 3 0 0 -3 2 0 0 -2 3 0 0 -3 2 0 0 -2 3 0 0 -6 2 0 0 -2 3 0 0 -3 2 0 0 -2 3 0 0 -5 3 0 0 -5 2 0 0 -3 3 0 0 -5 2 0 0 -2 3 0 0 -6 2 0 0 -5 3 0 0 -2 2 0 0 -5 3 0 0 -3 2 0 0 -5 3 0 0 -2 2 0 0 -6 3 0 0 -2 3 0 0 -5 2 0 0 -5 3 0 0 -5 2 0 0 -3 3 0 0 -5 2 0 0 -2 3 0 0 -6 2 0 0 -7 3 0 0 -5 2 0 0 -5 3 0 0 -3 2 0 0 -2 3 0 0 -5 3 0 0 -3 2 0 0 -3 3 0 0 -10 2 0 0 -15 3 0 0 -15 2 0 0 -15 3 0 0 -5 2 0 0 -6 3 0 0 -5 2 0 0 -7 3 0 0 -8 3 0 0 -5 2 0 0 -8 3 0 0 -7 2 0 0 -8 3 0 0 -7 2 0 0 -6 3 0 0 -10 2 0 0 -5 3 0 0 -7 2 0 0 -8 3 0 0 -10 2 0 0 -5 3 0 0 -10 3 0 0 -5 2 0 0 -16 3 0 0 -10 2 0 0 -15 3 0 0 -15 5 0 0 -3 5 0 0 -2 5 0 0 -3 5 0 0 -15 -3 0 0 -13 -2 0 0 -10 -3 0 0 -15 3 0 0 -10 2 0 0 -6 3 0 0 -2 3 0 0 -5 2 0 0 -5 3 0 0 -5 2 0 0 -3 3 0 0 -2 2 0 0 -3 3 0 0 -2 2 0 0 -3 3 0 0 -3 2 0 0 -2 3 0 0 -3 2 0 0 -2 3 0 0 -3 3 0 0 -2 2 0 0 -3 3 0 0 -2 5 0 0 -3 5 0 0 -2 5 0 0 -3 15 0 0 -2 10 0 0 -3 10 0 0 -3 11 0 0 -2 7 0 0 -3 13 0 0 -2 10 0 0 -3 10 0 0 -2 10 0 0 -3 13 0 0 -2 8 0 0 -3 12 0 0 -2 5 0 0 -3 13 0 0 -3 15 0 0 -2 8 0 0 -3 13 0 0 -2 12 0 0 -3 13 0 0 -2 10 0 0 -3 16 0 0 -2 10 0 0 -3 10 0 0 -2 10 0 0 -3 15 0 0 -2 10 0 0 -3 16 0 0 -3 10 0 0 -2 10 0 0 -3 15 0 0 -2 10 0 0 -3 11 0 0 -2 10 0 0 -3 15 0 0 -2 10 0 0 -3 5 0 0 3c17,-7 36,-7 53,-2l0 -592 -8 2 -9 12c-10,12 -22,21 -36,25l0 1 3 0 0 5 -5 0 0 3 -5 0 0 2 -6 0 0 3 -5 0 0 2 -5 0 0 3 -5 0 0 2 -5 0 0 3 -5 0 0 2 -5 0 0 3 -5 0 0 3 -5 0 0 2 -8 0 0 3 -5 0 0 2 -5 0 0 3 -5 0 0 2 -5 0 0 3 -5 0 0 2 -5 0 0 3 -5 0 0 2 -5 0 0 3 -3 0 0 2 -58 0 0 3 -3 0 0 3 -13 0 0 2 -10 0 0 3 -15 0 0 -3 -5 0 0 -2 -5 0 0 -3 -26 0 0 3 -7 0 0 -8 2 0zm-678 1252l0 -5 3 0 0 -3 2 0 0 -2 3 0 0 -3 2 0 0 5 -2 0 0 3 -3 0 0 2 -2 0 0 3 -3 0zm-297 974l0 3 2 -1c0,-1 -1,-1 -2,-2z"/>
   </g>
  </g>
  <g id="_789121120">
   <polygon class="fil0" points="3538,106 6535,106 6535,3328 6363,3511 3723,3494 3551,3302 "/>
   <path class="fil1 str0" d="M3570 106c0,1056 0,2113 0,3169 34,107 106,184 202,218l2590 0"/>
   <path class="fil1 str0" d="M6535 106c0,1056 0,2113 0,3169 -35,107 -89,185 -185,218"/>
   <g>
    <rect class="fil2" transform="matrix(2.45638E-015 -0.0928262 0.0918236 2.4314E-015 4392.91 2628.08)" width="26614" height="13280" rx="869" ry="869"/>
    <path class="fil3 str1" d="M4407 2603c-1,-499 -5,-1015 -6,-1514 1,10 14,-1 15,8 51,661 457,1175 1158,1506l-1167 0z"/>
    <ellipse class="fil2" transform="matrix(2.45638E-015 -0.0924898 0.0943374 2.50634E-015 4538.06 1791.99)" rx="337" ry="331"/>
    <rect class="fil1 str2" transform="matrix(2.45638E-015 -0.0928262 0.0918236 2.4314E-015 4392.91 2628.08)" width="26614" height="13280" rx="869" ry="869"/>
    <path class="fil0" d="M5344 313l0 -8 3 0 0 -10 3 0 0 -2 5 0 0 -3 2 0 0 -2 5 0 0 -3 5 0 0 -3 5 0 0 -2 3 0 0 -3 2 0 0 -2 6 0 0 -3 2 0 0 -2 3 0 0 -3 2 0 0 -2 3 0 0 -3 5 0 0 -2 2 0 0 -3 3 0 0 -2 2 0 0 -3 3 0 0 -3 5 0 0 -2 3 0 0 -3 2 0 0 -2 3 0 0 -3 5 0 0 -2 2 0 0 -3 3 0 0 -2 2 0 0 -3 5 0 0 -2 3 0 0 -3 2 0 0 -3 3 0 0 -2 3 0 0 -3 5 0 0 -2 2 0 0 -3 3 0 0 -2 2 0 0 -3 5 0 0 -2 3 0 0 -3 2 0 0 -2 3 0 0 -3 2 0 0 -2 11 0c-3,-20 2,-40 15,-57l4 -4 -248 0c0,25 -11,48 -32,63l7 0 0 3 -3 0 0 2 -5 0 0 3 -2 0 0 2 -6 0 0 3 -2 0 0 2 -5 0 0 3 -3 0 0 2 -2 0 0 3 -5 0 0 2 -3 0 0 3 -2 0 0 3 -5 0 0 2 -3 0 0 3 -5 0 0 2 -3 0 0 3 -7 0 0 2 -5 0 0 3 -11 0 0 2 -5 0 0 3 -7 0 0 2 -8 0 0 3 -7 0 0 3 -3 0 0 2 -5 0 0 3 -5 0 0 2 -3 0 0 3 -5 0 0 2 -5 0 0 3 -5 0 0 2 -2 0 0 3 -6 0 0 2 -5 0 0 3 -5 0 0 2 -2 0 0 3 -5 0 0 3 -5 0 0 2 -5 0 0 3 -3 0 0 2 -5 0 0 3 -5 0 0 2 -3 0 0 3 -2 0 0 2 -5 0 0 3 -3 0 0 2 -5 0 0 3 -2 0 0 2 -3 0 0 3 -5 0 0 3 -3 0 0 2 -2 0 0 3 -3 0 0 2 -2 0 0 5 -3 0 0 3 -2 0 0 5 -3 0 0 2 -2 0 0 3 -3 0 0 5 -3 0 0 3 -2 0 0 5 -3 0 0 2 -2 0 0 10 -3 0 0 8 -2 0 0 5 -3 0 0 5 -2 0 0 8 -3 0 0 5 -2 0 0 10 -3 0 0 5 -2 0 0 5 -3 0 0 5 -3 0 0 5 -2 0 0 5 -3 0 0 5 -2 0 0 3 -3 0 0 5 -2 0 0 5 -3 0 0 5 -2 0 0 5 -3 0 0 5 -2 0 0 5 -3 0 0 6 -2 0 0 7 -3 0 0 5 -3 0 0 5 -2 0 0 5 -3 0 0 5 -2 0 0 8 -3 0 0 8 -2 0 0 5 -3 0 0 10 -2 0 0 5 -3 0 0 5 -2 0 0 3 -5 0 0 2 -8 0 0 3 -5 0 0 2 -8 0 0 3 -5 0 0 7 -2 0 0 3 -3 0 0 30 -18 0 0 -2 -18 0 0 -3 -15 0 0 -2 -12 0 0 -3 -8 0 0 -2 -3 0 0 -3 -2 0 0 -2 -3 0 0 -3 -2 0 0 -5 -3 0 0 -2 -2 0 0 -3 -3 0 0 -3 -5 0 0 -2 -5 0 0 -3 -3 0 0 -2 -5 0 0 -3 -5 0 0 -2 -2 0 0 -3 -5 0 0 -2 -5 0 0 -3 -8 0 0 -2 -5 0 0 -3 -10 0 0 -3 -10 0 0 -2 -36 0 0 2 -20 0 0 3 -26 0 0 3 -2 0 0 2 -5 0 0 3 -3 0 0 2 -5 0 0 3 -2 0 0 2 -3 0 0 3 -3 0 0 2 -2 0 0 3 -3 0 0 2 -5 0 0 3 -7 0 0 3 -3 0 0 2 -2 0 0 3 -3 0 0 2 -2 0 0 3 -3 0 0 2 -3 0 0 3 -2 0 0 5 -3 0 0 5 -2 0 0 2 -3 0 0 6 -2 0 0 2 -3 0 0 5 -2 0 0 5 -3 0 0 5 -2 0 0 5 -3 0 0 5 -2 0 0 6 -3 0 0 5 -3 0 0 5 -2 0 0 5 -3 0 0 5 -2 0 0 18 2 0 0 7 3 0 0 10 2 0 0 8 3 0 0 3 3 0 0 10 2 0 0 5 3 0 0 10 2 0 0 5 3 0 0 5 2 0 0 5 3 0 0 8 2 0 0 5 3 0 0 5 2 0 0 10 -2 0 0 5 -3 0 0 5 -2 0 0 5 -3 0 0 5 -2 0 0 6 -3 0 0 5 -2 0 0 5 -3 0 0 5 -2 0 0 5 -3 0 0 5 -3 0 0 5 -2 0 0 5 -3 0 0 5 -2 0 0 5 -3 0 0 8 -2 0 0 2 -3 0 0 8 -2 0 0 5 -3 0 0 8 53 0 0 -3 6 0 0 -2 7 0 0 -3 5 0 0 -2 5 0 0 -3 3 0 0 -3 5 0 0 -2 2 0 0 -3 6 0 0 -5 2 0 0 -2 3 0 0 -3 2 0 0 -2 3 0 0 -3 2 0 0 -2 3 0 0 -3 2 0 0 -5 3 0 0 -3 5 0 0 3 2 0 0 3 6 0 0 2 10 0 0 -2 2 0 0 -3 8 0 0 5 2 0 0 3 3 0 0 2 2 0 0 3 3 0 0 7 3 0 0 3 2 0 0 2 3 0 0 3 2 0 0 2 3 0 0 3 2 0 0 3 3 0 0 5 2 0 0 2 3 0 0 5 2 0 0 3 3 0 0 2 3 0 0 3 12 0 0 -3 5 0 0 -2 3 0 0 -5 2 0 0 -3 3 0 0 -2 5 0 0 2 3 0 0 5 15 0 0 -2 7 0 0 -3 5 0 0 3 3 0 0 2 3 0 0 5 2 0 0 3 28 0 0 8 3 0 0 2 5 0 0 3 12 0 0 -3 8 0 0 -2 5 0 0 -3 3 0 0 -3 2 0 0 -5 3 0 0 -2 2 0 0 -3 3 0 0 -5 2 0 0 -5 3 0 0 -15 2 0 0 -8 3 0 0 -12 2 0 0 -21 3 0 0 -12 3 0 0 -3 12 0 0 -3 8 0 0 -2 5 0 0 -3 5 0 0 -2 3 0 0 -3 5 0 0 -2 2 0 0 -3 5 0 0 -2 3 0 0 -3 10 0 0 -2 18 0 0 7 -3 0 0 13 -2 0 0 20 -3 0 0 10 -2 0 0 31 2 0 0 5 3 0 0 2 2 0 0 3 10 0 0 10 -2 0 0 61 2 0 0 26 3 0 0 7 2 0 0 8 3 0 0 7 2 0 0 8 3 0 0 10 -3 0 0 5 3 0 0 5 3 0 0 5 2 0 0 36 -2 0 0 10 -3 0 0 15 -3 0 0 13 -2 0 0 15 -3 0 0 13 -2 0 0 15 -3 0 0 10 -2 0 0 21 -3 0 0 15 -2 0 0 13 -3 0 0 15 -2 0 0 5 -3 0 0 5 -2 0 0 5 -3 0 0 5 -3 0 0 3 -2 0 0 5 -3 0 0 2 -2 0 0 3 -3 0 0 5 -2 0 0 3 -3 0 0 2 -2 0 0 5 -3 0 0 5 -2 0 0 5 -3 0 0 5 -2 0 0 8 -3 0 0 5 -3 0 0 5 -2 0 0 5 -3 0 0 8 -2 0 0 5 -3 0 0 5 -2 0 0 5 -3 0 0 5 -2 0 0 8 -3 0 0 5 -2 0 0 5 -3 0 0 8 -2 0 0 5 -3 0 0 5 -3 0 0 5 -2 0 0 7 -3 0 0 3 -2 0 0 5 -3 0 0 3 -2 0 0 5 -3 0 0 2 -2 0 0 5 -3 0 0 3 -2 0 0 2 -3 0 0 5 -3 0 0 3 -2 0 0 3 -3 0 0 2 -2 0 0 3 -3 0 0 2 -2 0 0 5 -3 0 0 3 -2 0 0 5 -3 0 0 2 -2 0 0 5 -3 0 0 3 -2 0 0 5 -3 0 0 3 -3 0 0 5 -2 0 0 2 -3 0 0 3 -2 0 0 5 -3 0 0 2 -2 0 0 5 -3 0 0 3 -2 0 0 5 -3 0 0 3 -2 0 0 2 -3 0 0 3 -2 0 0 2 -6 0 0 3 -2 0 0 2 -3 0 0 3 -2 0 0 2 -8 0 0 3 -76 0 0 -3 -15 0 0 3 -10 0 0 2 -5 0 0 3 -8 0 0 3 -8 0 0 2 -5 0 0 3 -5 0 0 2 -7 0 0 3 -6 0 0 2 -5 0 0 3 -2 0 0 7 -3 0 0 3 -2 0 0 5 -3 0 0 5 -2 0 0 3 -3 0 0 5 -2 0 0 7 -3 0 0 26 10 0 0 -3 3 0 0 -2 2 0 0 -5 3 0 0 -5 2 0 0 -11 3 0 0 -5 5 0 0 -2 3 0 0 -3 2 0 0 10 -2 0 0 26 2 0 0 5 3 0 0 7 -3 0 0 18 3 0 0 3 2 0 0 2 15 0 0 -2 3 0 0 -3 5 0 0 -2 5 0 0 -3 3 0 0 -2 5 0 0 -3 7 0 0 3 3 0 0 2 7 0 0 -2 3 0 0 -16 5 0 0 5 3 0 0 6 2 0 0 5 3 0 0 2 2 0 0 8 10 0 0 -21 -2 0 0 -10 5 0 0 -2 8 0 0 -3 12 0 0 -2 13 0 0 -3 8 0 0 -2 5 0 0 -3 5 0 0 -2 2 0 0 -3 3 0 0 -3 2 0 0 -2 13 0 0 -3 8 0 0 -2 2 0 0 -3 3 0 0 -2 2 0 0 -5 3 0 0 -3 7 0 0 -2 3 0 0 -3 5 0 0 -2 3 0 0 -3 2 0 0 -3 3 0 0 -2 2 0 0 -3 3 0 0 -2 5 0 0 -3 2 0 0 -2 5 0 0 -3 6 0 0 -2 5 0 0 -3 2 0 0 -2 5 0 0 -3 3 0 0 -3 5 0 0 -2 2 0 0 -3 3 0 0 -2 3 0 0 -3 2 0 0 -2 5 0 0 -3 3 0 0 -2 2 0 0 -3 3 0 0 -2 2 0 0 -3 3 0 0 -2 2 0 0 -3 5 0 0 -3 3 0 0 -2 3 0 0 -3 2 0 0 -2 3 0 0 -3 2 0 0 -2 3 0 0 -3 2 0 0 -2 3 0 0 -3 5 0 0 -5 2 0 0 -2 3 0 0 -3 5 0 0 -3 3 0 0 -2 2 0 0 -3 3 0 0 -2 2 0 0 -5 3 0 0 -3 2 0 0 -2 3 0 0 -3 2 0 0 -2 3 0 0 -3 2 0 0 -2 3 0 0 -6 2 0 0 -2 3 0 0 -3 3 0 0 -2 2 0 0 -5 3 0 0 -5 2 0 0 -3 3 0 0 -5 2 0 0 -2 3 0 0 -6 2 0 0 -5 3 0 0 -2 2 0 0 -5 3 0 0 -3 2 0 0 -5 3 0 0 -2 3 0 0 -6 2 0 0 -2 3 0 0 -5 2 0 0 -5 3 0 0 -5 2 0 0 -3 3 0 0 -5 2 0 0 -2 3 0 0 -6 2 0 0 -7 3 0 0 -5 3 0 0 -5 2 0 0 -3 3 0 0 -2 2 0 0 -5 3 0 0 -3 2 0 0 -3 3 0 0 -10 2 0 0 -15 3 0 0 -15 2 0 0 -15 3 0 0 -5 2 0 0 -6 3 0 0 -5 3 0 0 -7 2 0 0 -8 3 0 0 -5 2 0 0 -8 3 0 0 -7 2 0 0 -8 3 0 0 -7 2 0 0 -6 3 0 0 -10 2 0 0 -5 3 0 0 -7 2 0 0 -8 3 0 0 -10 3 0 0 -5 2 0 0 -10 3 0 0 -5 2 0 0 -16 3 0 0 -10 2 0 0 -15 3 0 0 -15 5 0 0 -3 5 0 0 -2 5 0 0 -3 5 0 0 -15 -2 0 0 -13 -3 0 0 -10 -3 0 0 -15 3 0 0 -10 3 0 0 -6 2 0 0 -2 3 0 0 -5 2 0 0 -5 3 0 0 -5 2 0 0 -3 3 0 0 -2 2 0 0 -3 3 0 0 -2 2 0 0 -3 3 0 0 -3 2 0 0 -2 3 0 0 -3 3 0 0 -2 2 0 0 -3 3 0 0 -2 2 0 0 -3 3 0 0 -2 5 0 0 -3 5 0 0 -2 5 0 0 -3 15 0 0 -2 10 0 0 -3 11 0 0 -3 10 0 0 -2 7 0 0 -3 13 0 0 -2 10 0 0 -3 10 0 0 -2 10 0 0 -3 13 0 0 -2 8 0 0 -3 12 0 0 -2 6 0 0 -3 12 0 0 -3 16 0 0 -2 7 0 0 -3 13 0 0 -2 13 0 0 -3 12 0 0 -2 10 0 0 -3 16 0 0 -2 10 0 0 -3 10 0 0 -2 10 0 0 -3 15 0 0 -2 10 0 0 -3 16 0 0 -3 10 0 0 -2 10 0 0 -3 15 0 0 -2 10 0 0 -3 11 0 0 -2 10 0 0 -3 15 0 0 -2 10 0 0 -3 5 0 0 3c17,-7 36,-7 54,-2l0 -592 -9 2 -9 12c-10,12 -22,21 -36,25l0 1 3 0 0 5 -5 0 0 3 -5 0 0 2 -5 0 0 3 -6 0 0 2 -5 0 0 3 -5 0 0 2 -5 0 0 3 -5 0 0 2 -5 0 0 3 -5 0 0 3 -5 0 0 2 -8 0 0 3 -5 0 0 2 -5 0 0 3 -5 0 0 2 -5 0 0 3 -5 0 0 2 -5 0 0 3 -5 0 0 2 -5 0 0 3 -3 0 0 2 -58 0 0 3 -3 0 0 3 -13 0 0 2 -10 0 0 3 -15 0 0 -3 -5 0 0 -2 -5 0 0 -3 -25 0 0 3 -8 0 0 -8 2 0zm-678 1252l0 -5 3 0 0 -3 2 0 0 -2 3 0 0 -3 2 0 0 5 -2 0 0 3 -3 0 0 2 -2 0 0 3 -3 0zm-297 974l0 3 3 -1c-1,-1 -2,-1 -3,-2z"/>
   </g>
  </g>
  <g id="_789110784">
   <polygon class="fil0" points="13,107 3010,107 3010,3329 2838,3512 198,3495 27,3303 "/>
   <path class="fil1 str0" d="M45 107c0,1056 0,2112 0,3169 34,107 107,184 202,218l2590 0"/>
   <path class="fil1 str0" d="M3010 107c0,1056 0,2112 0,3169 -34,107 -89,185 -185,218"/>
   <g>
    <rect class="fil2" transform="matrix(2.45638E-015 -0.0928262 0.0918236 2.4314E-015 868.107 2628.98)" width="26614" height="13280" rx="869" ry="869"/>
    <path class="fil3 str1" d="M882 2604c-1,-499 -5,-1016 -6,-1514 1,10 14,-1 15,8 51,661 457,1175 1158,1506l-1167 0z"/>
    <ellipse class="fil2" transform="matrix(2.45638E-015 -0.0924898 0.0943374 2.50634E-015 1013.26 1792.89)" rx="337" ry="331"/>
    <rect class="fil1 str2" transform="matrix(2.45638E-015 -0.0928262 0.0918236 2.4314E-015 868.107 2628.98)" width="26614" height="13280" rx="869" ry="869"/>
    <path class="fil0" d="M1820 314l0 -8 2 0 0 -10 3 0 0 -2 5 0 0 -3 2 0 0 -3 5 0 0 -2 5 0 0 -3 6 0 0 -2 2 0 0 -3 3 0 0 -2 5 0 0 -3 2 0 0 -2 3 0 0 -3 2 0 0 -2 3 0 0 -3 5 0 0 -3 3 0 0 -2 2 0 0 -3 3 0 0 -2 2 0 0 -3 5 0 0 -2 3 0 0 -3 2 0 0 -2 3 0 0 -3 5 0 0 -2 2 0 0 -3 3 0 0 -2 3 0 0 -3 5 0 0 -3 2 0 0 -2 3 0 0 -3 2 0 0 -2 3 0 0 -3 5 0 0 -2 2 0 0 -3 3 0 0 -2 2 0 0 -3 6 0 0 -2 2 0 0 -3 3 0 0 -2 2 0 0 -3 3 0 0 -3 10 0c-2,-19 2,-39 15,-56l4 -4 -248 0c0,25 -11,48 -31,63l6 0 0 3 -3 0 0 2 -5 0 0 3 -2 0 0 2 -5 0 0 3 -3 0 0 2 -5 0 0 3 -3 0 0 2 -2 0 0 3 -5 0 0 2 -3 0 0 3 -2 0 0 2 -5 0 0 3 -3 0 0 3 -5 0 0 2 -2 0 0 3 -8 0 0 2 -5 0 0 3 -10 0 0 2 -5 0 0 3 -8 0 0 2 -8 0 0 3 -7 0 0 2 -3 0 0 3 -5 0 0 2 -5 0 0 3 -2 0 0 3 -6 0 0 2 -5 0 0 3 -5 0 0 2 -2 0 0 3 -5 0 0 2 -5 0 0 3 -6 0 0 2 -2 0 0 3 -5 0 0 2 -5 0 0 3 -5 0 0 3 -3 0 0 2 -5 0 0 3 -5 0 0 2 -3 0 0 3 -2 0 0 2 -5 0 0 3 -3 0 0 2 -5 0 0 3 -2 0 0 2 -3 0 0 3 -5 0 0 2 -2 0 0 3 -3 0 0 3 -3 0 0 2 -2 0 0 5 -3 0 0 3 -2 0 0 5 -3 0 0 2 -2 0 0 3 -3 0 0 5 -2 0 0 2 -3 0 0 6 -2 0 0 2 -3 0 0 10 -2 0 0 8 -3 0 0 5 -3 0 0 5 -2 0 0 8 -3 0 0 5 -2 0 0 10 -3 0 0 5 -2 0 0 5 -3 0 0 5 -2 0 0 5 -3 0 0 5 -2 0 0 5 -3 0 0 3 -2 0 0 5 -3 0 0 5 -3 0 0 5 -2 0 0 5 -3 0 0 5 -2 0 0 5 -3 0 0 5 -2 0 0 8 -3 0 0 5 -2 0 0 5 -3 0 0 5 -2 0 0 5 -3 0 0 8 -3 0 0 8 -2 0 0 5 -3 0 0 10 -2 0 0 5 -3 0 0 5 -2 0 0 3 -5 0 0 2 -8 0 0 3 -5 0 0 2 -8 0 0 3 -5 0 0 7 -2 0 0 3 -3 0 0 30 -18 0 0 -2 -17 0 0 -3 -16 0 0 -2 -12 0 0 -3 -8 0 0 -2 -2 0 0 -3 -3 0 0 -2 -2 0 0 -3 -3 0 0 -5 -3 0 0 -3 -2 0 0 -2 -3 0 0 -3 -5 0 0 -2 -5 0 0 -3 -2 0 0 -2 -5 0 0 -3 -6 0 0 -2 -2 0 0 -3 -5 0 0 -2 -5 0 0 -3 -8 0 0 -3 -5 0 0 -2 -10 0 0 -3 -10 0 0 -2 -36 0 0 2 -20 0 0 3 -25 0 0 2 -3 0 0 3 -5 0 0 3 -3 0 0 2 -5 0 0 3 -2 0 0 2 -3 0 0 3 -2 0 0 2 -3 0 0 3 -2 0 0 2 -6 0 0 3 -7 0 0 2 -3 0 0 3 -2 0 0 2 -3 0 0 3 -2 0 0 3 -3 0 0 2 -2 0 0 3 -3 0 0 5 -2 0 0 5 -3 0 0 2 -3 0 0 5 -2 0 0 3 -3 0 0 5 -2 0 0 5 -3 0 0 5 -2 0 0 5 -3 0 0 5 -2 0 0 5 -3 0 0 6 -2 0 0 5 -3 0 0 5 -2 0 0 5 -3 0 0 18 3 0 0 7 2 0 0 10 3 0 0 8 2 0 0 2 3 0 0 11 2 0 0 5 3 0 0 10 2 0 0 5 3 0 0 5 2 0 0 5 3 0 0 8 2 0 0 5 3 0 0 5 3 0 0 10 -3 0 0 5 -3 0 0 5 -2 0 0 5 -3 0 0 5 -2 0 0 5 -3 0 0 6 -2 0 0 5 -3 0 0 5 -2 0 0 5 -3 0 0 5 -2 0 0 5 -3 0 0 5 -2 0 0 5 -3 0 0 5 -3 0 0 8 -2 0 0 2 -3 0 0 8 -2 0 0 5 -3 0 0 8 54 0 0 -3 5 0 0 -2 7 0 0 -3 5 0 0 -3 5 0 0 -2 3 0 0 -3 5 0 0 -2 3 0 0 -3 5 0 0 -5 2 0 0 -2 3 0 0 -3 2 0 0 -2 3 0 0 -3 2 0 0 -2 3 0 0 -3 3 0 0 -5 2 0 0 -3 5 0 0 3 3 0 0 2 5 0 0 3 10 0 0 -3 2 0 0 -2 8 0 0 5 3 0 0 3 2 0 0 2 3 0 0 3 2 0 0 7 3 0 0 3 2 0 0 2 3 0 0 3 2 0 0 2 3 0 0 3 2 0 0 2 3 0 0 6 3 0 0 2 2 0 0 5 3 0 0 3 2 0 0 2 3 0 0 3 12 0 0 -3 5 0 0 -2 3 0 0 -5 3 0 0 -3 2 0 0 -2 5 0 0 2 3 0 0 5 15 0 0 -2 8 0 0 -3 5 0 0 3 2 0 0 2 3 0 0 5 2 0 0 3 28 0 0 7 3 0 0 3 5 0 0 2 13 0 0 -2 7 0 0 -3 5 0 0 -2 3 0 0 -3 2 0 0 -5 3 0 0 -2 2 0 0 -3 3 0 0 -5 2 0 0 -5 3 0 0 -15 3 0 0 -8 2 0 0 -13 3 0 0 -20 2 0 0 -13 3 0 0 -2 12 0 0 -3 8 0 0 -2 5 0 0 -3 5 0 0 -2 3 0 0 -3 5 0 0 -2 2 0 0 -3 5 0 0 -2 3 0 0 -3 10 0 0 -2 18 0 0 7 -3 0 0 13 -2 0 0 20 -3 0 0 10 -2 0 0 31 2 0 0 5 3 0 0 2 2 0 0 3 11 0 0 10 -3 0 0 61 3 0 0 25 2 0 0 8 3 0 0 8 2 0 0 7 3 0 0 8 2 0 0 10 -2 0 0 5 2 0 0 5 3 0 0 5 2 0 0 36 -2 0 0 10 -3 0 0 15 -2 0 0 13 -3 0 0 15 -2 0 0 13 -3 0 0 15 -2 0 0 10 -3 0 0 21 -3 0 0 15 -2 0 0 13 -3 0 0 15 -2 0 0 5 -3 0 0 5 -2 0 0 5 -3 0 0 5 -2 0 0 3 -3 0 0 5 -2 0 0 2 -3 0 0 3 -3 0 0 5 -2 0 0 2 -3 0 0 3 -2 0 0 5 -3 0 0 5 -2 0 0 5 -3 0 0 5 -2 0 0 8 -3 0 0 5 -2 0 0 5 -3 0 0 5 -2 0 0 8 -3 0 0 5 -3 0 0 5 -2 0 0 5 -3 0 0 5 -2 0 0 8 -3 0 0 5 -2 0 0 5 -3 0 0 7 -2 0 0 6 -3 0 0 5 -2 0 0 5 -3 0 0 7 -2 0 0 3 -3 0 0 5 -3 0 0 2 -2 0 0 6 -3 0 0 2 -2 0 0 5 -3 0 0 3 -2 0 0 2 -3 0 0 5 -2 0 0 3 -3 0 0 2 -2 0 0 3 -3 0 0 3 -2 0 0 2 -3 0 0 5 -3 0 0 3 -2 0 0 5 -3 0 0 2 -2 0 0 5 -3 0 0 3 -2 0 0 5 -3 0 0 3 -2 0 0 5 -3 0 0 2 -2 0 0 3 -3 0 0 5 -2 0 0 2 -3 0 0 5 -3 0 0 3 -2 0 0 5 -3 0 0 3 -2 0 0 2 -3 0 0 3 -2 0 0 2 -5 0 0 3 -3 0 0 2 -2 0 0 3 -3 0 0 2 -8 0 0 3 -76 0 0 -3 -15 0 0 3 -10 0 0 2 -5 0 0 3 -8 0 0 2 -7 0 0 3 -6 0 0 3 -5 0 0 2 -7 0 0 3 -5 0 0 2 -5 0 0 3 -3 0 0 7 -3 0 0 3 -2 0 0 5 -3 0 0 5 -2 0 0 3 -3 0 0 5 -2 0 0 7 -3 0 0 26 10 0 0 -3 3 0 0 -2 2 0 0 -5 3 0 0 -6 3 0 0 -10 2 0 0 -5 5 0 0 -2 3 0 0 -3 2 0 0 10 -2 0 0 26 2 0 0 5 3 0 0 7 -3 0 0 18 3 0 0 3 2 0 0 2 16 0 0 -2 2 0 0 -3 5 0 0 -2 5 0 0 -3 3 0 0 -2 5 0 0 -3 8 0 0 3 2 0 0 2 8 0 0 -2 2 0 0 -16 5 0 0 5 3 0 0 5 2 0 0 6 3 0 0 2 2 0 0 8 11 0 0 -21 -3 0 0 -10 5 0 0 -2 8 0 0 -3 12 0 0 -2 13 0 0 -3 8 0 0 -2 5 0 0 -3 5 0 0 -3 2 0 0 -2 3 0 0 -3 3 0 0 -2 12 0 0 -3 8 0 0 -2 2 0 0 -3 3 0 0 -2 3 0 0 -5 2 0 0 -3 8 0 0 -3 2 0 0 -2 5 0 0 -3 3 0 0 -2 2 0 0 -3 3 0 0 -2 2 0 0 -3 3 0 0 -2 5 0 0 -3 3 0 0 -2 5 0 0 -3 5 0 0 -2 5 0 0 -3 2 0 0 -3 5 0 0 -2 3 0 0 -3 5 0 0 -2 3 0 0 -3 2 0 0 -2 3 0 0 -3 2 0 0 -2 5 0 0 -3 3 0 0 -2 2 0 0 -3 3 0 0 -2 2 0 0 -3 3 0 0 -3 3 0 0 -2 5 0 0 -3 2 0 0 -2 3 0 0 -3 2 0 0 -2 3 0 0 -3 2 0 0 -2 3 0 0 -3 2 0 0 -2 3 0 0 -3 5 0 0 -5 3 0 0 -3 2 0 0 -2 5 0 0 -3 3 0 0 -2 2 0 0 -3 3 0 0 -2 2 0 0 -5 3 0 0 -3 2 0 0 -2 3 0 0 -3 3 0 0 -2 2 0 0 -3 3 0 0 -3 2 0 0 -5 3 0 0 -2 2 0 0 -3 3 0 0 -2 2 0 0 -5 3 0 0 -5 2 0 0 -3 3 0 0 -5 2 0 0 -3 3 0 0 -5 3 0 0 -5 2 0 0 -2 3 0 0 -5 2 0 0 -3 3 0 0 -5 2 0 0 -3 3 0 0 -5 2 0 0 -2 3 0 0 -5 2 0 0 -5 3 0 0 -5 2 0 0 -3 3 0 0 -5 3 0 0 -3 2 0 0 -5 3 0 0 -7 2 0 0 -5 3 0 0 -5 2 0 0 -3 3 0 0 -2 2 0 0 -6 3 0 0 -2 2 0 0 -3 3 0 0 -10 2 0 0 -15 3 0 0 -15 3 0 0 -16 2 0 0 -5 3 0 0 -5 2 0 0 -5 3 0 0 -7 2 0 0 -8 3 0 0 -5 2 0 0 -8 3 0 0 -7 2 0 0 -8 3 0 0 -8 2 0 0 -5 3 0 0 -10 3 0 0 -5 2 0 0 -7 3 0 0 -8 2 0 0 -10 3 0 0 -5 2 0 0 -10 3 0 0 -6 2 0 0 -15 3 0 0 -10 2 0 0 -15 3 0 0 -15 5 0 0 -3 5 0 0 -3 5 0 0 -2 5 0 0 -15 -2 0 0 -13 -3 0 0 -10 -2 0 0 -15 2 0 0 -11 3 0 0 -5 2 0 0 -2 3 0 0 -5 2 0 0 -5 3 0 0 -5 2 0 0 -3 3 0 0 -2 3 0 0 -3 2 0 0 -3 3 0 0 -2 2 0 0 -3 3 0 0 -2 2 0 0 -3 3 0 0 -2 2 0 0 -3 3 0 0 -2 2 0 0 -3 3 0 0 -2 5 0 0 -3 5 0 0 -3 5 0 0 -2 15 0 0 -3 11 0 0 -2 10 0 0 -3 10 0 0 -2 8 0 0 -3 12 0 0 -2 10 0 0 -3 11 0 0 -2 10 0 0 -3 12 0 0 -2 8 0 0 -3 13 0 0 -3 5 0 0 -2 12 0 0 -3 16 0 0 -2 7 0 0 -3 13 0 0 -2 13 0 0 -3 12 0 0 -2 11 0 0 -3 15 0 0 -2 10 0 0 -3 10 0 0 -2 10 0 0 -3 16 0 0 -3 10 0 0 -2 15 0 0 -3 10 0 0 -2 10 0 0 -3 15 0 0 -2 11 0 0 -3 10 0 0 -2 10 0 0 -3 15 0 0 -2 10 0 0 -3 5 0 0 3c17,-7 36,-7 54,-2l0 -592 -9 1 -9 13c-9,12 -22,21 -36,25l0 1 3 0 0 5 -5 0 0 3 -5 0 0 2 -5 0 0 3 -5 0 0 2 -5 0 0 3 -5 0 0 2 -6 0 0 3 -5 0 0 2 -5 0 0 3 -5 0 0 2 -5 0 0 3 -8 0 0 3 -5 0 0 2 -5 0 0 3 -5 0 0 2 -5 0 0 3 -5 0 0 2 -5 0 0 3 -5 0 0 2 -5 0 0 3 -3 0 0 2 -58 0 0 3 -3 0 0 2 -12 0 0 3 -10 0 0 3 -16 0 0 -3 -5 0 0 -3 -5 0 0 -2 -25 0 0 2 -8 0 0 -7 3 0zm-678 1252l0 -5 2 0 0 -3 3 0 0 -2 2 0 0 -3 3 0 0 5 -3 0 0 3 -2 0 0 2 -3 0 0 3 -2 0zm-298 974l0 3 3 -1c-1,-1 -2,-1 -3,-2z"/>
   </g>
  </g>
  <g id="_789113472">
   <polygon class="fil0" points="10588,106 13584,106 13584,3328 13413,3511 10773,3494 10601,3302 "/>
   <path class="fil1 str0" d="M10620 106c0,1056 0,2113 0,3169 34,107 106,184 202,218l2590 0"/>
   <path class="fil1 str0" d="M13584 106c0,1056 0,2113 0,3169 -34,107 -88,185 -185,218"/>
   <g>
    <rect class="fil2" transform="matrix(2.45638E-015 -0.0928262 0.0918236 2.4314E-015 11442.6 2628.08)" width="26614" height="13280" rx="869" ry="869"/>
    <path class="fil3 str1" d="M11456 2603c-1,-499 -5,-1015 -5,-1514 0,10 14,-1 15,8 50,661 456,1175 1158,1506l-1168 0z"/>
    <ellipse class="fil2" transform="matrix(2.45638E-015 -0.0924898 0.0943374 2.50634E-015 11587.8 1791.99)" rx="337" ry="331"/>
    <rect class="fil1 str2" transform="matrix(2.45638E-015 -0.0928262 0.0918236 2.4314E-015 11442.6 2628.08)" width="26614" height="13280" rx="869" ry="869"/>
    <path class="fil0" d="M12394 313l0 -8 3 0 0 -10 2 0 0 -2 5 0 0 -3 3 0 0 -2 5 0 0 -3 5 0 0 -3 5 0 0 -2 3 0 0 -3 2 0 0 -2 5 0 0 -3 3 0 0 -2 2 0 0 -3 3 0 0 -2 2 0 0 -3 5 0 0 -2 3 0 0 -3 3 0 0 -2 2 0 0 -3 3 0 0 -3 5 0 0 -2 2 0 0 -3 3 0 0 -2 2 0 0 -3 5 0 0 -2 3 0 0 -3 2 0 0 -2 3 0 0 -3 5 0 0 -2 3 0 0 -3 2 0 0 -3 3 0 0 -2 2 0 0 -3 5 0 0 -2 3 0 0 -3 2 0 0 -2 3 0 0 -3 5 0 0 -2 3 0 0 -3 2 0 0 -2 3 0 0 -3 2 0 0 -2 11 0c-3,-20 2,-40 15,-57l3 -4 -248 0c1,25 -11,48 -31,63l6 0 0 3 -2 0 0 2 -5 0 0 3 -3 0 0 2 -5 0 0 3 -2 0 0 2 -5 0 0 3 -3 0 0 2 -3 0 0 3 -5 0 0 2 -2 0 0 3 -3 0 0 3 -5 0 0 2 -2 0 0 3 -5 0 0 2 -3 0 0 3 -8 0 0 2 -5 0 0 3 -10 0 0 2 -5 0 0 3 -8 0 0 2 -7 0 0 3 -8 0 0 3 -2 0 0 2 -5 0 0 3 -5 0 0 2 -3 0 0 3 -5 0 0 2 -5 0 0 3 -5 0 0 2 -3 0 0 3 -5 0 0 2 -5 0 0 3 -5 0 0 2 -3 0 0 3 -5 0 0 3 -5 0 0 2 -5 0 0 3 -2 0 0 2 -5 0 0 3 -5 0 0 2 -3 0 0 3 -3 0 0 2 -5 0 0 3 -2 0 0 2 -5 0 0 3 -3 0 0 2 -2 0 0 3 -5 0 0 3 -3 0 0 2 -2 0 0 3 -3 0 0 2 -3 0 0 5 -2 0 0 3 -3 0 0 5 -2 0 0 2 -3 0 0 3 -2 0 0 5 -3 0 0 3 -2 0 0 5 -3 0 0 2 -2 0 0 10 -3 0 0 8 -3 0 0 5 -2 0 0 5 -3 0 0 8 -2 0 0 5 -3 0 0 10 -2 0 0 5 -3 0 0 5 -2 0 0 5 -3 0 0 5 -2 0 0 5 -3 0 0 5 -2 0 0 3 -3 0 0 5 -3 0 0 5 -2 0 0 5 -3 0 0 5 -2 0 0 5 -3 0 0 5 -2 0 0 6 -3 0 0 7 -2 0 0 5 -3 0 0 5 -2 0 0 5 -3 0 0 5 -2 0 0 8 -3 0 0 8 -3 0 0 5 -2 0 0 10 -3 0 0 5 -2 0 0 5 -3 0 0 3 -5 0 0 2 -7 0 0 3 -5 0 0 2 -8 0 0 3 -5 0 0 7 -3 0 0 3 -2 0 0 30 -18 0 0 -2 -18 0 0 -3 -15 0 0 -2 -13 0 0 -3 -7 0 0 -2 -3 0 0 -3 -2 0 0 -2 -3 0 0 -3 -3 0 0 -5 -2 0 0 -2 -3 0 0 -3 -2 0 0 -3 -5 0 0 -2 -5 0 0 -3 -3 0 0 -2 -5 0 0 -3 -5 0 0 -2 -3 0 0 -3 -5 0 0 -2 -5 0 0 -3 -7 0 0 -2 -5 0 0 -3 -11 0 0 -3 -10 0 0 -2 -35 0 0 2 -21 0 0 3 -25 0 0 3 -3 0 0 2 -5 0 0 3 -2 0 0 2 -5 0 0 3 -3 0 0 2 -2 0 0 3 -3 0 0 2 -2 0 0 3 -3 0 0 2 -5 0 0 3 -8 0 0 3 -2 0 0 2 -3 0 0 3 -2 0 0 2 -3 0 0 3 -2 0 0 2 -3 0 0 3 -2 0 0 5 -3 0 0 5 -2 0 0 2 -3 0 0 6 -3 0 0 2 -2 0 0 5 -3 0 0 5 -2 0 0 5 -3 0 0 5 -2 0 0 5 -3 0 0 6 -2 0 0 5 -3 0 0 5 -2 0 0 5 -3 0 0 5 -2 0 0 18 2 0 0 7 3 0 0 10 2 0 0 8 3 0 0 3 2 0 0 10 3 0 0 5 2 0 0 10 3 0 0 5 2 0 0 5 3 0 0 5 2 0 0 8 3 0 0 5 3 0 0 5 2 0 0 10 -2 0 0 5 -3 0 0 5 -3 0 0 5 -2 0 0 5 -3 0 0 6 -2 0 0 5 -3 0 0 5 -2 0 0 5 -3 0 0 5 -2 0 0 5 -3 0 0 5 -2 0 0 5 -3 0 0 5 -2 0 0 5 -3 0 0 8 -3 0 0 2 -2 0 0 8 -3 0 0 5 -2 0 0 8 53 0 0 -3 5 0 0 -2 8 0 0 -3 5 0 0 -2 5 0 0 -3 3 0 0 -3 5 0 0 -2 2 0 0 -3 5 0 0 -5 3 0 0 -2 2 0 0 -3 3 0 0 -2 2 0 0 -3 3 0 0 -2 2 0 0 -3 3 0 0 -5 3 0 0 -3 5 0 0 3 2 0 0 3 5 0 0 2 10 0 0 -2 3 0 0 -3 8 0 0 5 2 0 0 3 3 0 0 2 2 0 0 3 3 0 0 7 2 0 0 3 3 0 0 2 2 0 0 3 3 0 0 2 2 0 0 3 3 0 0 3 3 0 0 5 2 0 0 2 3 0 0 5 2 0 0 3 3 0 0 2 2 0 0 3 13 0 0 -3 5 0 0 -2 3 0 0 -5 2 0 0 -3 3 0 0 -2 5 0 0 2 2 0 0 5 15 0 0 -2 8 0 0 -3 5 0 0 3 3 0 0 2 2 0 0 5 3 0 0 3 28 0 0 8 2 0 0 2 5 0 0 3 13 0 0 -3 8 0 0 -2 5 0 0 -3 2 0 0 -3 3 0 0 -5 2 0 0 -2 3 0 0 -3 2 0 0 -5 3 0 0 -5 3 0 0 -15 2 0 0 -8 3 0 0 -12 2 0 0 -21 3 0 0 -12 2 0 0 -3 13 0 0 -3 8 0 0 -2 5 0 0 -3 5 0 0 -2 2 0 0 -3 5 0 0 -2 3 0 0 -3 5 0 0 -2 2 0 0 -3 11 0 0 -2 17 0 0 7 -2 0 0 13 -3 0 0 20 -2 0 0 10 -3 0 0 31 3 0 0 5 2 0 0 2 3 0 0 3 10 0 0 10 -3 0 0 61 3 0 0 26 3 0 0 7 2 0 0 8 3 0 0 7 2 0 0 8 3 0 0 10 -3 0 0 5 3 0 0 5 2 0 0 5 3 0 0 36 -3 0 0 10 -2 0 0 15 -3 0 0 13 -2 0 0 15 -3 0 0 13 -2 0 0 15 -3 0 0 10 -3 0 0 21 -2 0 0 15 -3 0 0 13 -2 0 0 15 -3 0 0 5 -2 0 0 5 -3 0 0 5 -2 0 0 5 -3 0 0 3 -2 0 0 5 -3 0 0 2 -2 0 0 3 -3 0 0 5 -3 0 0 3 -2 0 0 2 -3 0 0 5 -2 0 0 5 -3 0 0 5 -2 0 0 5 -3 0 0 8 -2 0 0 5 -3 0 0 5 -2 0 0 5 -3 0 0 8 -2 0 0 5 -3 0 0 5 -3 0 0 5 -2 0 0 5 -3 0 0 8 -2 0 0 5 -3 0 0 5 -2 0 0 8 -3 0 0 5 -2 0 0 5 -3 0 0 5 -2 0 0 7 -3 0 0 3 -2 0 0 5 -3 0 0 3 -3 0 0 5 -2 0 0 2 -3 0 0 5 -2 0 0 3 -3 0 0 2 -2 0 0 5 -3 0 0 3 -2 0 0 3 -3 0 0 2 -2 0 0 3 -3 0 0 2 -3 0 0 5 -2 0 0 3 -3 0 0 5 -2 0 0 2 -3 0 0 5 -2 0 0 3 -3 0 0 5 -2 0 0 3 -3 0 0 5 -2 0 0 2 -3 0 0 3 -2 0 0 5 -3 0 0 2 -3 0 0 5 -2 0 0 3 -3 0 0 5 -2 0 0 3 -3 0 0 2 -2 0 0 3 -3 0 0 2 -5 0 0 3 -2 0 0 2 -3 0 0 3 -2 0 0 2 -8 0 0 3 -76 0 0 -3 -16 0 0 3 -10 0 0 2 -5 0 0 3 -7 0 0 3 -8 0 0 2 -5 0 0 3 -5 0 0 2 -8 0 0 3 -5 0 0 2 -5 0 0 3 -2 0 0 7 -3 0 0 3 -3 0 0 5 -2 0 0 5 -3 0 0 3 -2 0 0 5 -3 0 0 7 -2 0 0 26 10 0 0 -3 2 0 0 -2 3 0 0 -5 3 0 0 -5 2 0 0 -11 3 0 0 -5 5 0 0 -2 2 0 0 -3 3 0 0 10 -3 0 0 26 3 0 0 5 2 0 0 7 -2 0 0 18 2 0 0 3 3 0 0 2 15 0 0 -2 3 0 0 -3 5 0 0 -2 5 0 0 -3 2 0 0 -2 5 0 0 -3 8 0 0 3 3 0 0 2 7 0 0 -2 3 0 0 -16 5 0 0 5 2 0 0 6 3 0 0 5 2 0 0 2 3 0 0 8 10 0 0 -21 -2 0 0 -10 5 0 0 -2 7 0 0 -3 13 0 0 -2 13 0 0 -3 7 0 0 -2 5 0 0 -3 5 0 0 -2 3 0 0 -3 3 0 0 -3 2 0 0 -2 13 0 0 -3 7 0 0 -2 3 0 0 -3 2 0 0 -2 3 0 0 -5 3 0 0 -3 7 0 0 -2 3 0 0 -3 5 0 0 -2 2 0 0 -3 3 0 0 -3 2 0 0 -2 3 0 0 -3 2 0 0 -2 6 0 0 -3 2 0 0 -2 5 0 0 -3 5 0 0 -2 5 0 0 -3 3 0 0 -2 5 0 0 -3 3 0 0 -3 5 0 0 -2 2 0 0 -3 3 0 0 -2 2 0 0 -3 3 0 0 -2 5 0 0 -3 2 0 0 -2 3 0 0 -3 2 0 0 -2 3 0 0 -3 3 0 0 -2 2 0 0 -3 5 0 0 -3 3 0 0 -2 2 0 0 -3 3 0 0 -2 2 0 0 -3 3 0 0 -2 2 0 0 -3 3 0 0 -2 2 0 0 -3 6 0 0 -5 2 0 0 -2 3 0 0 -3 5 0 0 -3 2 0 0 -2 3 0 0 -3 2 0 0 -2 3 0 0 -5 2 0 0 -3 3 0 0 -2 2 0 0 -3 3 0 0 -2 3 0 0 -3 2 0 0 -2 3 0 0 -6 2 0 0 -2 3 0 0 -3 2 0 0 -2 3 0 0 -5 2 0 0 -5 3 0 0 -3 2 0 0 -5 3 0 0 -2 2 0 0 -6 3 0 0 -5 3 0 0 -2 2 0 0 -5 3 0 0 -3 2 0 0 -5 3 0 0 -2 2 0 0 -6 3 0 0 -2 2 0 0 -5 3 0 0 -5 2 0 0 -5 3 0 0 -3 3 0 0 -5 2 0 0 -2 3 0 0 -6 2 0 0 -7 3 0 0 -5 2 0 0 -5 3 0 0 -3 2 0 0 -2 3 0 0 -5 2 0 0 -3 3 0 0 -3 2 0 0 -10 3 0 0 -15 3 0 0 -15 2 0 0 -15 3 0 0 -5 2 0 0 -6 3 0 0 -5 2 0 0 -7 3 0 0 -8 2 0 0 -5 3 0 0 -8 2 0 0 -7 3 0 0 -8 2 0 0 -7 3 0 0 -6 3 0 0 -10 2 0 0 -5 3 0 0 -7 2 0 0 -8 3 0 0 -10 2 0 0 -5 3 0 0 -10 2 0 0 -5 3 0 0 -16 2 0 0 -10 3 0 0 -15 2 0 0 -15 6 0 0 -3 5 0 0 -2 5 0 0 -3 5 0 0 -15 -3 0 0 -13 -2 0 0 -10 -3 0 0 -15 3 0 0 -10 2 0 0 -6 3 0 0 -2 2 0 0 -5 3 0 0 -5 2 0 0 -5 3 0 0 -3 2 0 0 -2 3 0 0 -3 3 0 0 -2 2 0 0 -3 3 0 0 -3 2 0 0 -2 3 0 0 -3 2 0 0 -2 3 0 0 -3 2 0 0 -2 3 0 0 -3 2 0 0 -2 6 0 0 -3 5 0 0 -2 5 0 0 -3 15 0 0 -2 10 0 0 -3 10 0 0 -3 10 0 0 -2 8 0 0 -3 13 0 0 -2 10 0 0 -3 10 0 0 -2 10 0 0 -3 13 0 0 -2 7 0 0 -3 13 0 0 -2 5 0 0 -3 13 0 0 -3 15 0 0 -2 8 0 0 -3 13 0 0 -2 12 0 0 -3 13 0 0 -2 10 0 0 -3 15 0 0 -2 10 0 0 -3 11 0 0 -2 10 0 0 -3 15 0 0 -2 10 0 0 -3 15 0 0 -3 11 0 0 -2 10 0 0 -3 15 0 0 -2 10 0 0 -3 10 0 0 -2 10 0 0 -3 16 0 0 -2 10 0 0 -3 5 0 0 3c17,-7 36,-7 53,-2l0 -592 -8 2 -9 12c-10,12 -22,21 -36,25l0 1 2 0 0 5 -5 0 0 3 -5 0 0 2 -5 0 0 3 -5 0 0 2 -5 0 0 3 -5 0 0 2 -5 0 0 3 -5 0 0 2 -5 0 0 3 -5 0 0 3 -5 0 0 2 -8 0 0 3 -5 0 0 2 -5 0 0 3 -5 0 0 2 -5 0 0 3 -5 0 0 2 -5 0 0 3 -6 0 0 2 -5 0 0 3 -2 0 0 2 -59 0 0 3 -2 0 0 3 -13 0 0 2 -10 0 0 3 -15 0 0 -3 -5 0 0 -2 -5 0 0 -3 -26 0 0 3 -7 0 0 -8 2 0zm-678 1252l0 -5 3 0 0 -3 2 0 0 -2 3 0 0 -3 2 0 0 5 -2 0 0 3 -3 0 0 2 -2 0 0 3 -3 0zm-297 974l0 3 2 -1c-1,-1 -1,-1 -2,-2z"/>
   </g>
  </g>
  <g id="_789119488">
   <circle class="fil2 str3" cx="858" cy="3026" r="200"/>
   <circle class="fil2 str3" cx="1292" cy="3032" r="200"/>
   <circle class="fil2 str3" cx="1727" cy="3031" r="200"/>
   <circle class="fil2 str3" cx="2161" cy="3039" r="200"/>
   <circle class="fil2 str3" cx="1078" cy="2641" r="200"/>
   <circle class="fil2 str3" cx="1512" cy="2647" r="200"/>
   <circle class="fil2 str3" cx="1947" cy="2646" r="200"/>
   <circle class="fil2 str3" cx="1294" cy="2246" r="200"/>
   <circle class="fil2 str3" cx="1728" cy="2252" r="200"/>
   <circle class="fil2 str3" cx="1513" cy="1864" r="200"/>
  </g>
  <g id="_789117280">
   <circle class="fil2 str3" cx="4601" cy="3026" r="200"/>
   <circle class="fil2 str3" cx="5036" cy="3032" r="200"/>
   <circle class="fil2 str3" cx="5470" cy="3031" r="200"/>
   <circle class="fil2 str3" cx="4821" cy="2640" r="200"/>
   <circle class="fil2 str3" cx="5255" cy="2647" r="200"/>
   <circle class="fil2 str3" cx="5037" cy="2245" r="200"/>
  </g>
  <g id="_789116256">
   <circle class="fil2 str3" cx="8343" cy="3030" r="200"/>
   <circle class="fil2 str3" cx="8777" cy="3031" r="200"/>
   <circle class="fil2 str3" cx="8563" cy="2644" r="200"/>
  </g>
  <circle class="fil2 str3" cx="12086" cy="3032" r="200"/>
 </g>
</svg>
